M48
;DRILL file {Pcbnew (2012-01-19 BZR 3256)-stable} date 11/6/2012 2:03:06 AM
;FORMAT={-:-/ absolute / inch / decimal}
FMAT,2
INCH,TZ
T1C0.020
T2C0.035
T3C0.051
%
G90
G05
M72
T1
X3.600Y-3.260
X3.615Y-4.330
X3.690Y-4.330
X3.760Y-3.405
X3.875Y-3.110
X3.890Y-3.270
X3.925Y-3.155
X4.070Y-3.405
X4.190Y-3.270
X4.240Y-3.110
X4.320Y-3.010
X4.325Y-4.370
X4.335Y-3.405
X4.415Y-3.235
X4.600Y-3.235
X4.760Y-3.200
X4.815Y-3.455
X4.880Y-3.420
X4.935Y-3.455
X4.995Y-3.995
X5.025Y-3.860
X5.025Y-4.505
X5.025Y-4.590
X5.025Y-4.645
X5.075Y-3.325
X5.075Y-3.640
X5.195Y-3.710
X5.210Y-3.190
X5.255Y-3.345
X5.305Y-4.195
X5.315Y-4.465
X5.325Y-4.750
X5.360Y-3.815
X5.365Y-3.350
X5.405Y-4.820
X5.445Y-3.775
X5.460Y-4.455
X5.495Y-3.475
X5.550Y-3.850
X5.585Y-3.365
X5.600Y-4.175
X5.625Y-3.550
X5.680Y-3.535
X5.740Y-3.090
X5.770Y-3.375
X5.785Y-3.325
X5.795Y-3.190
X5.845Y-3.045
X5.850Y-3.180
X5.930Y-3.395
X5.955Y-4.395
X5.975Y-3.210
X6.010Y-4.025
X6.025Y-3.135
X6.065Y-3.140
X6.080Y-3.650
X6.100Y-3.725
X6.100Y-3.770
X6.105Y-3.190
X6.105Y-3.935
X6.105Y-3.980
X6.120Y-4.085
X6.150Y-4.545
X6.195Y-3.270
X6.200Y-3.190
X6.200Y-3.230
X6.275Y-3.380
X6.275Y-4.125
X6.345Y-3.955
X6.345Y-4.225
X6.355Y-3.655
X6.415Y-3.670
X6.455Y-4.390
T2
X3.735Y-3.895
X3.735Y-4.180
X3.835Y-3.795
X3.835Y-4.280
X3.935Y-3.895
X3.935Y-4.180
X4.245Y-3.895
X4.245Y-4.180
X4.345Y-3.795
X4.345Y-4.280
X4.445Y-3.895
X4.445Y-4.180
X4.755Y-3.895
X4.755Y-4.180
X4.855Y-3.795
X4.855Y-4.280
X4.955Y-3.895
X4.955Y-4.180
T3
X3.946Y-4.680
X4.143Y-4.680
X4.340Y-4.680
X4.537Y-4.680
X4.734Y-4.680
T0
M30
