G04 (created by PCBNEW-RS274X (2012-01-19 BZR 3256)-stable) date 11/6/2012 2:02:58 AM*
G01*
G70*
G90*
%MOIN*%
G04 Gerber Fmt 3.4, Leading zero omitted, Abs format*
%FSLAX34Y34*%
G04 APERTURE LIST*
%ADD10C,0.008000*%
%ADD11C,0.007900*%
%ADD12C,0.015000*%
%ADD13C,0.005000*%
%ADD14C,0.012000*%
%ADD15C,0.007500*%
%ADD16R,0.051100X0.013700*%
%ADD17R,0.061000X0.080700*%
%ADD18R,0.072800X0.072800*%
%ADD19R,0.080000X0.080000*%
%ADD20C,0.085000*%
%ADD21R,0.100000X0.164000*%
%ADD22R,0.100000X0.060000*%
%ADD23R,0.028000X0.028000*%
%ADD24R,0.050000X0.050000*%
%ADD25R,0.022000X0.047000*%
%ADD26R,0.043000X0.018000*%
%ADD27R,0.043000X0.038000*%
%ADD28R,0.038000X0.043000*%
%ADD29O,0.008000X0.053100*%
%ADD30O,0.053100X0.008000*%
%ADD31R,0.077100X0.092900*%
%ADD32R,0.031900X0.293700*%
%ADD33C,0.078500*%
%ADD34R,0.123000X0.028000*%
%ADD35C,0.128000*%
%ADD36R,0.146000X0.196000*%
%ADD37R,0.051500X0.134200*%
%ADD38R,0.134200X0.051500*%
G04 APERTURE END LIST*
G54D10*
G54D11*
X64971Y-35925D02*
X64971Y-32775D01*
G54D12*
X45450Y-39450D02*
X41450Y-39450D01*
X45450Y-38950D02*
X45450Y-38450D01*
X45450Y-38450D02*
X41450Y-38450D01*
X41450Y-38450D02*
X41450Y-38950D01*
X45450Y-40150D02*
X45450Y-38950D01*
X45450Y-40150D02*
X41450Y-40150D01*
X41450Y-40150D02*
X41450Y-38950D01*
X36350Y-41300D02*
X40350Y-41300D01*
X36350Y-41800D02*
X36350Y-42300D01*
X36350Y-42300D02*
X40350Y-42300D01*
X40350Y-42300D02*
X40350Y-41800D01*
X36350Y-40600D02*
X36350Y-41800D01*
X36350Y-40600D02*
X40350Y-40600D01*
X40350Y-40600D02*
X40350Y-41800D01*
X40350Y-39450D02*
X36350Y-39450D01*
X40350Y-38950D02*
X40350Y-38450D01*
X40350Y-38450D02*
X36350Y-38450D01*
X36350Y-38450D02*
X36350Y-38950D01*
X40350Y-40150D02*
X40350Y-38950D01*
X40350Y-40150D02*
X36350Y-40150D01*
X36350Y-40150D02*
X36350Y-38950D01*
X41450Y-41300D02*
X45450Y-41300D01*
X41450Y-41800D02*
X41450Y-42300D01*
X41450Y-42300D02*
X45450Y-42300D01*
X45450Y-42300D02*
X45450Y-41800D01*
X41450Y-40600D02*
X41450Y-41800D01*
X41450Y-40600D02*
X45450Y-40600D01*
X45450Y-40600D02*
X45450Y-41800D01*
X50550Y-39450D02*
X46550Y-39450D01*
X50550Y-38950D02*
X50550Y-38450D01*
X50550Y-38450D02*
X46550Y-38450D01*
X46550Y-38450D02*
X46550Y-38950D01*
X50550Y-40150D02*
X50550Y-38950D01*
X50550Y-40150D02*
X46550Y-40150D01*
X46550Y-40150D02*
X46550Y-38950D01*
X46550Y-41300D02*
X50550Y-41300D01*
X46550Y-41800D02*
X46550Y-42300D01*
X46550Y-42300D02*
X50550Y-42300D01*
X50550Y-42300D02*
X50550Y-41800D01*
X46550Y-40600D02*
X46550Y-41800D01*
X46550Y-40600D02*
X50550Y-40600D01*
X50550Y-40600D02*
X50550Y-41800D01*
G54D10*
X53000Y-38000D02*
X51800Y-38000D01*
X51800Y-38000D02*
X51800Y-40800D01*
X51800Y-40800D02*
X53000Y-40800D01*
X54200Y-38000D02*
X54500Y-38000D01*
X54500Y-38000D02*
X55400Y-38600D01*
X55400Y-38600D02*
X55400Y-40200D01*
X55400Y-40200D02*
X54500Y-40800D01*
X54500Y-40800D02*
X54200Y-40800D01*
X44550Y-34750D02*
X43750Y-34750D01*
X43950Y-34950D02*
X43850Y-34950D01*
X43850Y-34950D02*
X43850Y-34150D01*
X43850Y-34150D02*
X43950Y-34150D01*
X44350Y-34150D02*
X44450Y-34150D01*
X44450Y-34150D02*
X44450Y-34950D01*
X44450Y-34950D02*
X44350Y-34950D01*
X41550Y-34750D02*
X40750Y-34750D01*
X40950Y-34950D02*
X40850Y-34950D01*
X40850Y-34950D02*
X40850Y-34150D01*
X40850Y-34150D02*
X40950Y-34150D01*
X41350Y-34150D02*
X41450Y-34150D01*
X41450Y-34150D02*
X41450Y-34950D01*
X41450Y-34950D02*
X41350Y-34950D01*
X38450Y-34750D02*
X37650Y-34750D01*
X37850Y-34950D02*
X37750Y-34950D01*
X37750Y-34950D02*
X37750Y-34150D01*
X37750Y-34150D02*
X37850Y-34150D01*
X38250Y-34150D02*
X38350Y-34150D01*
X38350Y-34150D02*
X38350Y-34950D01*
X38350Y-34950D02*
X38250Y-34950D01*
G54D13*
X37550Y-35350D02*
X35550Y-35350D01*
X35550Y-35350D02*
X35550Y-33550D01*
X35550Y-33550D02*
X37550Y-33550D01*
X37550Y-33550D02*
X37550Y-35350D01*
X37550Y-34750D02*
X37350Y-34750D01*
X37350Y-34750D02*
X37350Y-34250D01*
X37350Y-34250D02*
X37550Y-34250D01*
X40650Y-35350D02*
X38650Y-35350D01*
X38650Y-35350D02*
X38650Y-33550D01*
X38650Y-33550D02*
X40650Y-33550D01*
X40650Y-33550D02*
X40650Y-35350D01*
X40650Y-34750D02*
X40450Y-34750D01*
X40450Y-34750D02*
X40450Y-34250D01*
X40450Y-34250D02*
X40650Y-34250D01*
X43650Y-35350D02*
X41650Y-35350D01*
X41650Y-35350D02*
X41650Y-33550D01*
X41650Y-33550D02*
X43650Y-33550D01*
X43650Y-33550D02*
X43650Y-35350D01*
X43650Y-34750D02*
X43450Y-34750D01*
X43450Y-34750D02*
X43450Y-34250D01*
X43450Y-34250D02*
X43650Y-34250D01*
G54D10*
X47850Y-32150D02*
X49750Y-32150D01*
X49750Y-32150D02*
X49750Y-36150D01*
X49750Y-36150D02*
X47850Y-36150D01*
X47850Y-36150D02*
X47850Y-32150D01*
X48550Y-36150D02*
X48550Y-35900D01*
X48550Y-35900D02*
X49050Y-35900D01*
X49050Y-35900D02*
X49050Y-36150D01*
X51750Y-33700D02*
X51750Y-34700D01*
X51150Y-34700D02*
X51150Y-33700D01*
X50450Y-34700D02*
X50450Y-33700D01*
X51050Y-33700D02*
X51050Y-34700D01*
X56650Y-42650D02*
X55650Y-42650D01*
X55650Y-42050D02*
X56650Y-42050D01*
X40600Y-39100D02*
X40600Y-38100D01*
X41200Y-38100D02*
X41200Y-39100D01*
X56650Y-44050D02*
X55650Y-44050D01*
X55650Y-43450D02*
X56650Y-43450D01*
X62150Y-35150D02*
X62150Y-34150D01*
X62750Y-34150D02*
X62750Y-35150D01*
X56650Y-43350D02*
X55650Y-43350D01*
X55650Y-42750D02*
X56650Y-42750D01*
X57950Y-43350D02*
X56950Y-43350D01*
X56950Y-42750D02*
X57950Y-42750D01*
X57950Y-44050D02*
X56950Y-44050D01*
X56950Y-43450D02*
X57950Y-43450D01*
X57950Y-42650D02*
X56950Y-42650D01*
X56950Y-42050D02*
X57950Y-42050D01*
X51950Y-47200D02*
X52950Y-47200D01*
X52950Y-47800D02*
X51950Y-47800D01*
X51650Y-47800D02*
X50650Y-47800D01*
X50650Y-47200D02*
X51650Y-47200D01*
X51750Y-35100D02*
X51750Y-36100D01*
X51150Y-36100D02*
X51150Y-35100D01*
X47050Y-33900D02*
X47050Y-34900D01*
X46450Y-34900D02*
X46450Y-33900D01*
X47450Y-36600D02*
X46450Y-36600D01*
X46450Y-36000D02*
X47450Y-36000D01*
X53200Y-41600D02*
X52200Y-41600D01*
X52200Y-41000D02*
X53200Y-41000D01*
X35500Y-41950D02*
X35500Y-40950D01*
X36100Y-40950D02*
X36100Y-41950D01*
X45700Y-39100D02*
X45700Y-38100D01*
X46300Y-38100D02*
X46300Y-39100D01*
X40600Y-41950D02*
X40600Y-40950D01*
X41200Y-40950D02*
X41200Y-41950D01*
X49250Y-38150D02*
X49250Y-37150D01*
X49850Y-37150D02*
X49850Y-38150D01*
X45700Y-41950D02*
X45700Y-40950D01*
X46300Y-40950D02*
X46300Y-41950D01*
X46450Y-33650D02*
X46450Y-32650D01*
X47050Y-32650D02*
X47050Y-33650D01*
X46300Y-32650D02*
X46300Y-33650D01*
X45700Y-33650D02*
X45700Y-32650D01*
X51250Y-37150D02*
X51250Y-38150D01*
X50650Y-38150D02*
X50650Y-37150D01*
X50550Y-37150D02*
X50550Y-38150D01*
X49950Y-38150D02*
X49950Y-37150D01*
X52150Y-37200D02*
X53150Y-37200D01*
X53150Y-37800D02*
X52150Y-37800D01*
X58900Y-37300D02*
X58900Y-38300D01*
X58300Y-38300D02*
X58300Y-37300D01*
X63800Y-38600D02*
X62800Y-38600D01*
X62800Y-38000D02*
X63800Y-38000D01*
X63800Y-39300D02*
X62800Y-39300D01*
X62800Y-38700D02*
X63800Y-38700D01*
X63800Y-37900D02*
X62800Y-37900D01*
X62800Y-37300D02*
X63800Y-37300D01*
X52450Y-33700D02*
X52450Y-34700D01*
X51850Y-34700D02*
X51850Y-33700D01*
X50450Y-36100D02*
X50450Y-35100D01*
X51050Y-35100D02*
X51050Y-36100D01*
X36150Y-36100D02*
X37150Y-36100D01*
X37150Y-36700D02*
X36150Y-36700D01*
X39250Y-36100D02*
X40250Y-36100D01*
X40250Y-36700D02*
X39250Y-36700D01*
X42250Y-36100D02*
X43250Y-36100D01*
X43250Y-36700D02*
X42250Y-36700D01*
X45550Y-32650D02*
X45550Y-33650D01*
X44950Y-33650D02*
X44950Y-32650D01*
X57300Y-37300D02*
X57300Y-38300D01*
X56700Y-38300D02*
X56700Y-37300D01*
X63050Y-42650D02*
X63050Y-43650D01*
X62450Y-43650D02*
X62450Y-42650D01*
X60950Y-41250D02*
X60950Y-42250D01*
X60350Y-42250D02*
X60350Y-41250D01*
X51950Y-46150D02*
X52950Y-46150D01*
X52950Y-46750D02*
X51950Y-46750D01*
X63850Y-43650D02*
X63850Y-42650D01*
X64450Y-42650D02*
X64450Y-43650D01*
X61650Y-42650D02*
X61650Y-43650D01*
X61050Y-43650D02*
X61050Y-42650D01*
X63150Y-43650D02*
X63150Y-42650D01*
X63750Y-42650D02*
X63750Y-43650D01*
X61050Y-42250D02*
X61050Y-41250D01*
X61650Y-41250D02*
X61650Y-42250D01*
X60250Y-41250D02*
X60250Y-42250D01*
X59650Y-42250D02*
X59650Y-41250D01*
X51650Y-46050D02*
X50650Y-46050D01*
X50650Y-45450D02*
X51650Y-45450D01*
X51950Y-45450D02*
X52950Y-45450D01*
X52950Y-46050D02*
X51950Y-46050D01*
X62350Y-42650D02*
X62350Y-43650D01*
X61750Y-43650D02*
X61750Y-42650D01*
X51650Y-45350D02*
X50650Y-45350D01*
X50650Y-44750D02*
X51650Y-44750D01*
X51950Y-44750D02*
X52950Y-44750D01*
X52950Y-45350D02*
X51950Y-45350D01*
X51650Y-46750D02*
X50650Y-46750D01*
X50650Y-46150D02*
X51650Y-46150D01*
G54D11*
X57422Y-34376D02*
X57324Y-34278D01*
X57520Y-34376D02*
X57324Y-34180D01*
X60080Y-34376D02*
X60276Y-34376D01*
X60276Y-34376D02*
X60276Y-34180D01*
X60080Y-31424D02*
X60276Y-31424D01*
X60276Y-31424D02*
X60276Y-31620D01*
X57324Y-31620D02*
X57324Y-31424D01*
X57324Y-31424D02*
X57520Y-31424D01*
X57324Y-34180D02*
X57324Y-34376D01*
X57324Y-34376D02*
X57520Y-34376D01*
G54D12*
X58784Y-35849D02*
X58784Y-35770D01*
X58784Y-35770D02*
X56816Y-35770D01*
X56816Y-35770D02*
X56816Y-35849D01*
X56816Y-36951D02*
X56816Y-37030D01*
X56816Y-37030D02*
X58784Y-37030D01*
X58784Y-37030D02*
X58784Y-36951D01*
X61765Y-48173D02*
X61765Y-46008D01*
X57435Y-48173D02*
X57435Y-46008D01*
X57435Y-46008D02*
X57730Y-46008D01*
X57435Y-48173D02*
X61765Y-48173D01*
X61765Y-46008D02*
X61470Y-46008D01*
X48597Y-46800D02*
X48597Y-48139D01*
X48597Y-48139D02*
X38203Y-48139D01*
X38203Y-48139D02*
X38203Y-46800D01*
X38203Y-46800D02*
X38203Y-45146D01*
X38203Y-45146D02*
X48597Y-45146D01*
X48597Y-45146D02*
X48597Y-46800D01*
X53625Y-46008D02*
X53428Y-46008D01*
X53428Y-46008D02*
X53428Y-48173D01*
X53428Y-48173D02*
X56972Y-48173D01*
X56972Y-48173D02*
X56972Y-46008D01*
X56972Y-46008D02*
X56775Y-46008D01*
X53400Y-30600D02*
X53395Y-30648D01*
X53381Y-30695D01*
X53358Y-30738D01*
X53327Y-30776D01*
X53289Y-30807D01*
X53246Y-30830D01*
X53200Y-30844D01*
X53151Y-30849D01*
X53104Y-30845D01*
X53057Y-30831D01*
X53014Y-30809D01*
X52976Y-30778D01*
X52944Y-30741D01*
X52921Y-30698D01*
X52906Y-30651D01*
X52901Y-30603D01*
X52905Y-30555D01*
X52918Y-30508D01*
X52940Y-30465D01*
X52971Y-30427D01*
X53008Y-30395D01*
X53050Y-30371D01*
X53097Y-30356D01*
X53145Y-30351D01*
X53193Y-30354D01*
X53240Y-30367D01*
X53283Y-30389D01*
X53322Y-30419D01*
X53354Y-30456D01*
X53378Y-30499D01*
X53393Y-30545D01*
X53399Y-30594D01*
X53400Y-30600D01*
X55150Y-33350D02*
X55150Y-33600D01*
X55150Y-33600D02*
X53650Y-33600D01*
X53650Y-33600D02*
X53650Y-33350D01*
X53650Y-30850D02*
X53650Y-30600D01*
X53650Y-30600D02*
X55150Y-30600D01*
X55150Y-30600D02*
X55150Y-30850D01*
X42700Y-44850D02*
X39300Y-44850D01*
X42700Y-42550D02*
X39300Y-42550D01*
G54D10*
X62850Y-36250D02*
X62050Y-36250D01*
X62250Y-36450D02*
X62150Y-36450D01*
X62150Y-36450D02*
X62150Y-35650D01*
X62150Y-35650D02*
X62250Y-35650D01*
X62650Y-35650D02*
X62750Y-35650D01*
X62750Y-35650D02*
X62750Y-36450D01*
X62750Y-36450D02*
X62650Y-36450D01*
G54D11*
X55799Y-34351D02*
X55799Y-36634D01*
X55799Y-36634D02*
X55484Y-36949D01*
X55484Y-36949D02*
X54736Y-36949D01*
X53201Y-34351D02*
X53201Y-36634D01*
X53201Y-36634D02*
X53516Y-36949D01*
X53516Y-36949D02*
X54264Y-36949D01*
X55799Y-34351D02*
X54736Y-34351D01*
X54264Y-34351D02*
X53201Y-34351D01*
X53349Y-44349D02*
X51066Y-44349D01*
X51066Y-44349D02*
X50751Y-44034D01*
X50751Y-44034D02*
X50751Y-43286D01*
X53349Y-41751D02*
X51066Y-41751D01*
X51066Y-41751D02*
X50751Y-42066D01*
X50751Y-42066D02*
X50751Y-42814D01*
X53349Y-44349D02*
X53349Y-43286D01*
X53349Y-42814D02*
X53349Y-41751D01*
X35251Y-45499D02*
X35251Y-43216D01*
X35251Y-43216D02*
X35566Y-42901D01*
X35566Y-42901D02*
X36314Y-42901D01*
X37849Y-45499D02*
X37849Y-43216D01*
X37849Y-43216D02*
X37534Y-42901D01*
X37534Y-42901D02*
X36786Y-42901D01*
X35251Y-45499D02*
X36314Y-45499D01*
X36786Y-45499D02*
X37849Y-45499D01*
G54D10*
X38350Y-32650D02*
X38350Y-33650D01*
X37750Y-33650D02*
X37750Y-32650D01*
X41450Y-32650D02*
X41450Y-33650D01*
X40850Y-33650D02*
X40850Y-32650D01*
X44450Y-32650D02*
X44450Y-33650D01*
X43850Y-33650D02*
X43850Y-32650D01*
X56650Y-33500D02*
X56650Y-34500D01*
X56050Y-34500D02*
X56050Y-33500D01*
X61050Y-31600D02*
X61050Y-30600D01*
X61650Y-30600D02*
X61650Y-31600D01*
X57000Y-30550D02*
X57000Y-31550D01*
X56400Y-31550D02*
X56400Y-30550D01*
G54D11*
X62495Y-32962D02*
X62495Y-33187D01*
X62480Y-33232D01*
X62450Y-33262D01*
X62405Y-33277D01*
X62375Y-33277D01*
X62630Y-32992D02*
X62645Y-32977D01*
X62675Y-32962D01*
X62750Y-32962D01*
X62780Y-32977D01*
X62795Y-32992D01*
X62810Y-33022D01*
X62810Y-33052D01*
X62795Y-33097D01*
X62615Y-33277D01*
X62810Y-33277D01*
G54D14*
X43393Y-39300D02*
X43336Y-39271D01*
X43279Y-39214D01*
X43193Y-39129D01*
X43136Y-39100D01*
X43079Y-39100D01*
X43107Y-39243D02*
X43050Y-39214D01*
X42993Y-39157D01*
X42964Y-39043D01*
X42964Y-38843D01*
X42993Y-38729D01*
X43050Y-38671D01*
X43107Y-38643D01*
X43221Y-38643D01*
X43279Y-38671D01*
X43336Y-38729D01*
X43364Y-38843D01*
X43364Y-39043D01*
X43336Y-39157D01*
X43279Y-39214D01*
X43221Y-39243D01*
X43107Y-39243D01*
X43565Y-38643D02*
X43936Y-38643D01*
X43736Y-38871D01*
X43822Y-38871D01*
X43879Y-38900D01*
X43908Y-38929D01*
X43936Y-38986D01*
X43936Y-39129D01*
X43908Y-39186D01*
X43879Y-39214D01*
X43822Y-39243D01*
X43650Y-39243D01*
X43593Y-39214D01*
X43565Y-39186D01*
X38293Y-42150D02*
X38236Y-42121D01*
X38179Y-42064D01*
X38093Y-41979D01*
X38036Y-41950D01*
X37979Y-41950D01*
X38007Y-42093D02*
X37950Y-42064D01*
X37893Y-42007D01*
X37864Y-41893D01*
X37864Y-41693D01*
X37893Y-41579D01*
X37950Y-41521D01*
X38007Y-41493D01*
X38121Y-41493D01*
X38179Y-41521D01*
X38236Y-41579D01*
X38264Y-41693D01*
X38264Y-41893D01*
X38236Y-42007D01*
X38179Y-42064D01*
X38121Y-42093D01*
X38007Y-42093D01*
X38493Y-41550D02*
X38522Y-41521D01*
X38579Y-41493D01*
X38722Y-41493D01*
X38779Y-41521D01*
X38808Y-41550D01*
X38836Y-41607D01*
X38836Y-41664D01*
X38808Y-41750D01*
X38465Y-42093D01*
X38836Y-42093D01*
X38293Y-39300D02*
X38236Y-39271D01*
X38179Y-39214D01*
X38093Y-39129D01*
X38036Y-39100D01*
X37979Y-39100D01*
X38007Y-39243D02*
X37950Y-39214D01*
X37893Y-39157D01*
X37864Y-39043D01*
X37864Y-38843D01*
X37893Y-38729D01*
X37950Y-38671D01*
X38007Y-38643D01*
X38121Y-38643D01*
X38179Y-38671D01*
X38236Y-38729D01*
X38264Y-38843D01*
X38264Y-39043D01*
X38236Y-39157D01*
X38179Y-39214D01*
X38121Y-39243D01*
X38007Y-39243D01*
X38836Y-39243D02*
X38493Y-39243D01*
X38665Y-39243D02*
X38665Y-38643D01*
X38608Y-38729D01*
X38550Y-38786D01*
X38493Y-38814D01*
X43393Y-42150D02*
X43336Y-42121D01*
X43279Y-42064D01*
X43193Y-41979D01*
X43136Y-41950D01*
X43079Y-41950D01*
X43107Y-42093D02*
X43050Y-42064D01*
X42993Y-42007D01*
X42964Y-41893D01*
X42964Y-41693D01*
X42993Y-41579D01*
X43050Y-41521D01*
X43107Y-41493D01*
X43221Y-41493D01*
X43279Y-41521D01*
X43336Y-41579D01*
X43364Y-41693D01*
X43364Y-41893D01*
X43336Y-42007D01*
X43279Y-42064D01*
X43221Y-42093D01*
X43107Y-42093D01*
X43879Y-41693D02*
X43879Y-42093D01*
X43736Y-41464D02*
X43593Y-41893D01*
X43965Y-41893D01*
X48493Y-39300D02*
X48436Y-39271D01*
X48379Y-39214D01*
X48293Y-39129D01*
X48236Y-39100D01*
X48179Y-39100D01*
X48207Y-39243D02*
X48150Y-39214D01*
X48093Y-39157D01*
X48064Y-39043D01*
X48064Y-38843D01*
X48093Y-38729D01*
X48150Y-38671D01*
X48207Y-38643D01*
X48321Y-38643D01*
X48379Y-38671D01*
X48436Y-38729D01*
X48464Y-38843D01*
X48464Y-39043D01*
X48436Y-39157D01*
X48379Y-39214D01*
X48321Y-39243D01*
X48207Y-39243D01*
X49008Y-38643D02*
X48722Y-38643D01*
X48693Y-38929D01*
X48722Y-38900D01*
X48779Y-38871D01*
X48922Y-38871D01*
X48979Y-38900D01*
X49008Y-38929D01*
X49036Y-38986D01*
X49036Y-39129D01*
X49008Y-39186D01*
X48979Y-39214D01*
X48922Y-39243D01*
X48779Y-39243D01*
X48722Y-39214D01*
X48693Y-39186D01*
X48493Y-42150D02*
X48436Y-42121D01*
X48379Y-42064D01*
X48293Y-41979D01*
X48236Y-41950D01*
X48179Y-41950D01*
X48207Y-42093D02*
X48150Y-42064D01*
X48093Y-42007D01*
X48064Y-41893D01*
X48064Y-41693D01*
X48093Y-41579D01*
X48150Y-41521D01*
X48207Y-41493D01*
X48321Y-41493D01*
X48379Y-41521D01*
X48436Y-41579D01*
X48464Y-41693D01*
X48464Y-41893D01*
X48436Y-42007D01*
X48379Y-42064D01*
X48321Y-42093D01*
X48207Y-42093D01*
X48979Y-41493D02*
X48865Y-41493D01*
X48808Y-41521D01*
X48779Y-41550D01*
X48722Y-41636D01*
X48693Y-41750D01*
X48693Y-41979D01*
X48722Y-42036D01*
X48750Y-42064D01*
X48808Y-42093D01*
X48922Y-42093D01*
X48979Y-42064D01*
X49008Y-42036D01*
X49036Y-41979D01*
X49036Y-41836D01*
X49008Y-41779D01*
X48979Y-41750D01*
X48922Y-41721D01*
X48808Y-41721D01*
X48750Y-41750D01*
X48722Y-41779D01*
X48693Y-41836D01*
G54D10*
X55545Y-39162D02*
X55545Y-39486D01*
X55564Y-39524D01*
X55583Y-39543D01*
X55621Y-39562D01*
X55698Y-39562D01*
X55736Y-39543D01*
X55755Y-39524D01*
X55774Y-39486D01*
X55774Y-39162D01*
X56174Y-39562D02*
X55945Y-39562D01*
X56059Y-39562D02*
X56059Y-39162D01*
X56021Y-39219D01*
X55983Y-39257D01*
X55945Y-39276D01*
G54D15*
X43928Y-35671D02*
X43928Y-35371D01*
X44000Y-35371D01*
X44043Y-35386D01*
X44071Y-35414D01*
X44086Y-35443D01*
X44100Y-35500D01*
X44100Y-35543D01*
X44086Y-35600D01*
X44071Y-35629D01*
X44043Y-35657D01*
X44000Y-35671D01*
X43928Y-35671D01*
X44357Y-35471D02*
X44357Y-35671D01*
X44286Y-35357D02*
X44214Y-35571D01*
X44400Y-35571D01*
X40928Y-35671D02*
X40928Y-35371D01*
X41000Y-35371D01*
X41043Y-35386D01*
X41071Y-35414D01*
X41086Y-35443D01*
X41100Y-35500D01*
X41100Y-35543D01*
X41086Y-35600D01*
X41071Y-35629D01*
X41043Y-35657D01*
X41000Y-35671D01*
X40928Y-35671D01*
X41200Y-35371D02*
X41386Y-35371D01*
X41286Y-35486D01*
X41328Y-35486D01*
X41357Y-35500D01*
X41371Y-35514D01*
X41386Y-35543D01*
X41386Y-35614D01*
X41371Y-35643D01*
X41357Y-35657D01*
X41328Y-35671D01*
X41243Y-35671D01*
X41214Y-35657D01*
X41200Y-35643D01*
X37828Y-35671D02*
X37828Y-35371D01*
X37900Y-35371D01*
X37943Y-35386D01*
X37971Y-35414D01*
X37986Y-35443D01*
X38000Y-35500D01*
X38000Y-35543D01*
X37986Y-35600D01*
X37971Y-35629D01*
X37943Y-35657D01*
X37900Y-35671D01*
X37828Y-35671D01*
X38114Y-35400D02*
X38128Y-35386D01*
X38157Y-35371D01*
X38228Y-35371D01*
X38257Y-35386D01*
X38271Y-35400D01*
X38286Y-35429D01*
X38286Y-35457D01*
X38271Y-35500D01*
X38100Y-35671D01*
X38286Y-35671D01*
X36571Y-32521D02*
X36571Y-32764D01*
X36586Y-32793D01*
X36600Y-32807D01*
X36629Y-32821D01*
X36686Y-32821D01*
X36714Y-32807D01*
X36729Y-32793D01*
X36743Y-32764D01*
X36743Y-32521D01*
X37014Y-32621D02*
X37014Y-32821D01*
X36943Y-32507D02*
X36871Y-32721D01*
X37057Y-32721D01*
X39671Y-32521D02*
X39671Y-32764D01*
X39686Y-32793D01*
X39700Y-32807D01*
X39729Y-32821D01*
X39786Y-32821D01*
X39814Y-32807D01*
X39829Y-32793D01*
X39843Y-32764D01*
X39843Y-32521D01*
X40128Y-32521D02*
X39985Y-32521D01*
X39971Y-32664D01*
X39985Y-32650D01*
X40014Y-32636D01*
X40085Y-32636D01*
X40114Y-32650D01*
X40128Y-32664D01*
X40143Y-32693D01*
X40143Y-32764D01*
X40128Y-32793D01*
X40114Y-32807D01*
X40085Y-32821D01*
X40014Y-32821D01*
X39985Y-32807D01*
X39971Y-32793D01*
X42671Y-32521D02*
X42671Y-32764D01*
X42686Y-32793D01*
X42700Y-32807D01*
X42729Y-32821D01*
X42786Y-32821D01*
X42814Y-32807D01*
X42829Y-32793D01*
X42843Y-32764D01*
X42843Y-32521D01*
X43114Y-32521D02*
X43057Y-32521D01*
X43028Y-32536D01*
X43014Y-32550D01*
X42985Y-32593D01*
X42971Y-32650D01*
X42971Y-32764D01*
X42985Y-32793D01*
X43000Y-32807D01*
X43028Y-32821D01*
X43085Y-32821D01*
X43114Y-32807D01*
X43128Y-32793D01*
X43143Y-32764D01*
X43143Y-32693D01*
X43128Y-32664D01*
X43114Y-32650D01*
X43085Y-32636D01*
X43028Y-32636D01*
X43000Y-32650D01*
X42985Y-32664D01*
X42971Y-32693D01*
G54D13*
X48457Y-31612D02*
X48457Y-31936D01*
X48479Y-31974D01*
X48500Y-31993D01*
X48543Y-32012D01*
X48629Y-32012D01*
X48671Y-31993D01*
X48693Y-31974D01*
X48714Y-31936D01*
X48714Y-31612D01*
X48885Y-31612D02*
X49164Y-31612D01*
X49014Y-31764D01*
X49078Y-31764D01*
X49121Y-31783D01*
X49142Y-31802D01*
X49164Y-31840D01*
X49164Y-31936D01*
X49142Y-31974D01*
X49121Y-31993D01*
X49078Y-32012D01*
X48950Y-32012D01*
X48907Y-31993D01*
X48885Y-31974D01*
G54D15*
X51671Y-33343D02*
X51529Y-33443D01*
X51671Y-33515D02*
X51371Y-33515D01*
X51371Y-33400D01*
X51386Y-33372D01*
X51400Y-33357D01*
X51429Y-33343D01*
X51471Y-33343D01*
X51500Y-33357D01*
X51514Y-33372D01*
X51529Y-33400D01*
X51529Y-33515D01*
X51400Y-33229D02*
X51386Y-33215D01*
X51371Y-33186D01*
X51371Y-33115D01*
X51386Y-33086D01*
X51400Y-33072D01*
X51429Y-33057D01*
X51457Y-33057D01*
X51500Y-33072D01*
X51671Y-33243D01*
X51671Y-33057D01*
X51371Y-32957D02*
X51371Y-32771D01*
X51486Y-32871D01*
X51486Y-32829D01*
X51500Y-32800D01*
X51514Y-32786D01*
X51543Y-32771D01*
X51614Y-32771D01*
X51643Y-32786D01*
X51657Y-32800D01*
X51671Y-32829D01*
X51671Y-32914D01*
X51657Y-32943D01*
X51643Y-32957D01*
X50921Y-32793D02*
X50779Y-32893D01*
X50921Y-32965D02*
X50621Y-32965D01*
X50621Y-32850D01*
X50636Y-32822D01*
X50650Y-32807D01*
X50679Y-32793D01*
X50721Y-32793D01*
X50750Y-32807D01*
X50764Y-32822D01*
X50779Y-32850D01*
X50779Y-32965D01*
X50650Y-32679D02*
X50636Y-32665D01*
X50621Y-32636D01*
X50621Y-32565D01*
X50636Y-32536D01*
X50650Y-32522D01*
X50679Y-32507D01*
X50707Y-32507D01*
X50750Y-32522D01*
X50921Y-32693D01*
X50921Y-32507D01*
X50650Y-32393D02*
X50636Y-32379D01*
X50621Y-32350D01*
X50621Y-32279D01*
X50636Y-32250D01*
X50650Y-32236D01*
X50679Y-32221D01*
X50707Y-32221D01*
X50750Y-32236D01*
X50921Y-32407D01*
X50921Y-32221D01*
X54907Y-42471D02*
X54807Y-42329D01*
X54735Y-42471D02*
X54735Y-42171D01*
X54850Y-42171D01*
X54878Y-42186D01*
X54893Y-42200D01*
X54907Y-42229D01*
X54907Y-42271D01*
X54893Y-42300D01*
X54878Y-42314D01*
X54850Y-42329D01*
X54735Y-42329D01*
X55021Y-42200D02*
X55035Y-42186D01*
X55064Y-42171D01*
X55135Y-42171D01*
X55164Y-42186D01*
X55178Y-42200D01*
X55193Y-42229D01*
X55193Y-42257D01*
X55178Y-42300D01*
X55007Y-42471D01*
X55193Y-42471D01*
X55479Y-42471D02*
X55307Y-42471D01*
X55393Y-42471D02*
X55393Y-42171D01*
X55364Y-42214D01*
X55336Y-42243D01*
X55307Y-42257D01*
X41021Y-37693D02*
X40879Y-37793D01*
X41021Y-37865D02*
X40721Y-37865D01*
X40721Y-37750D01*
X40736Y-37722D01*
X40750Y-37707D01*
X40779Y-37693D01*
X40821Y-37693D01*
X40850Y-37707D01*
X40864Y-37722D01*
X40879Y-37750D01*
X40879Y-37865D01*
X40750Y-37579D02*
X40736Y-37565D01*
X40721Y-37536D01*
X40721Y-37465D01*
X40736Y-37436D01*
X40750Y-37422D01*
X40779Y-37407D01*
X40807Y-37407D01*
X40850Y-37422D01*
X41021Y-37593D01*
X41021Y-37407D01*
X40721Y-37307D02*
X40721Y-37107D01*
X41021Y-37236D01*
X54907Y-43871D02*
X54807Y-43729D01*
X54735Y-43871D02*
X54735Y-43571D01*
X54850Y-43571D01*
X54878Y-43586D01*
X54893Y-43600D01*
X54907Y-43629D01*
X54907Y-43671D01*
X54893Y-43700D01*
X54878Y-43714D01*
X54850Y-43729D01*
X54735Y-43729D01*
X55021Y-43600D02*
X55035Y-43586D01*
X55064Y-43571D01*
X55135Y-43571D01*
X55164Y-43586D01*
X55178Y-43600D01*
X55193Y-43629D01*
X55193Y-43657D01*
X55178Y-43700D01*
X55007Y-43871D01*
X55193Y-43871D01*
X55379Y-43571D02*
X55407Y-43571D01*
X55436Y-43586D01*
X55450Y-43600D01*
X55464Y-43629D01*
X55479Y-43686D01*
X55479Y-43757D01*
X55464Y-43814D01*
X55450Y-43843D01*
X55436Y-43857D01*
X55407Y-43871D01*
X55379Y-43871D01*
X55350Y-43857D01*
X55336Y-43843D01*
X55321Y-43814D01*
X55307Y-43757D01*
X55307Y-43686D01*
X55321Y-43629D01*
X55336Y-43600D01*
X55350Y-43586D01*
X55379Y-43571D01*
X61457Y-34821D02*
X61357Y-34679D01*
X61285Y-34821D02*
X61285Y-34521D01*
X61400Y-34521D01*
X61428Y-34536D01*
X61443Y-34550D01*
X61457Y-34579D01*
X61457Y-34621D01*
X61443Y-34650D01*
X61428Y-34664D01*
X61400Y-34679D01*
X61285Y-34679D01*
X61743Y-34821D02*
X61571Y-34821D01*
X61657Y-34821D02*
X61657Y-34521D01*
X61628Y-34564D01*
X61600Y-34593D01*
X61571Y-34607D01*
X61886Y-34821D02*
X61943Y-34821D01*
X61971Y-34807D01*
X61986Y-34793D01*
X62014Y-34750D01*
X62029Y-34693D01*
X62029Y-34579D01*
X62014Y-34550D01*
X62000Y-34536D01*
X61971Y-34521D01*
X61914Y-34521D01*
X61886Y-34536D01*
X61871Y-34550D01*
X61857Y-34579D01*
X61857Y-34650D01*
X61871Y-34679D01*
X61886Y-34693D01*
X61914Y-34707D01*
X61971Y-34707D01*
X62000Y-34693D01*
X62014Y-34679D01*
X62029Y-34650D01*
X54907Y-43221D02*
X54807Y-43079D01*
X54735Y-43221D02*
X54735Y-42921D01*
X54850Y-42921D01*
X54878Y-42936D01*
X54893Y-42950D01*
X54907Y-42979D01*
X54907Y-43021D01*
X54893Y-43050D01*
X54878Y-43064D01*
X54850Y-43079D01*
X54735Y-43079D01*
X55193Y-43221D02*
X55021Y-43221D01*
X55107Y-43221D02*
X55107Y-42921D01*
X55078Y-42964D01*
X55050Y-42993D01*
X55021Y-43007D01*
X55364Y-43050D02*
X55336Y-43036D01*
X55321Y-43021D01*
X55307Y-42993D01*
X55307Y-42979D01*
X55321Y-42950D01*
X55336Y-42936D01*
X55364Y-42921D01*
X55421Y-42921D01*
X55450Y-42936D01*
X55464Y-42950D01*
X55479Y-42979D01*
X55479Y-42993D01*
X55464Y-43021D01*
X55450Y-43036D01*
X55421Y-43050D01*
X55364Y-43050D01*
X55336Y-43064D01*
X55321Y-43079D01*
X55307Y-43107D01*
X55307Y-43164D01*
X55321Y-43193D01*
X55336Y-43207D01*
X55364Y-43221D01*
X55421Y-43221D01*
X55450Y-43207D01*
X55464Y-43193D01*
X55479Y-43164D01*
X55479Y-43107D01*
X55464Y-43079D01*
X55450Y-43064D01*
X55421Y-43050D01*
X58307Y-43221D02*
X58207Y-43079D01*
X58135Y-43221D02*
X58135Y-42921D01*
X58250Y-42921D01*
X58278Y-42936D01*
X58293Y-42950D01*
X58307Y-42979D01*
X58307Y-43021D01*
X58293Y-43050D01*
X58278Y-43064D01*
X58250Y-43079D01*
X58135Y-43079D01*
X58593Y-43221D02*
X58421Y-43221D01*
X58507Y-43221D02*
X58507Y-42921D01*
X58478Y-42964D01*
X58450Y-42993D01*
X58421Y-43007D01*
X58693Y-42921D02*
X58893Y-42921D01*
X58764Y-43221D01*
X58307Y-43921D02*
X58207Y-43779D01*
X58135Y-43921D02*
X58135Y-43621D01*
X58250Y-43621D01*
X58278Y-43636D01*
X58293Y-43650D01*
X58307Y-43679D01*
X58307Y-43721D01*
X58293Y-43750D01*
X58278Y-43764D01*
X58250Y-43779D01*
X58135Y-43779D01*
X58593Y-43921D02*
X58421Y-43921D01*
X58507Y-43921D02*
X58507Y-43621D01*
X58478Y-43664D01*
X58450Y-43693D01*
X58421Y-43707D01*
X58850Y-43621D02*
X58793Y-43621D01*
X58764Y-43636D01*
X58750Y-43650D01*
X58721Y-43693D01*
X58707Y-43750D01*
X58707Y-43864D01*
X58721Y-43893D01*
X58736Y-43907D01*
X58764Y-43921D01*
X58821Y-43921D01*
X58850Y-43907D01*
X58864Y-43893D01*
X58879Y-43864D01*
X58879Y-43793D01*
X58864Y-43764D01*
X58850Y-43750D01*
X58821Y-43736D01*
X58764Y-43736D01*
X58736Y-43750D01*
X58721Y-43764D01*
X58707Y-43793D01*
X58307Y-42471D02*
X58207Y-42329D01*
X58135Y-42471D02*
X58135Y-42171D01*
X58250Y-42171D01*
X58278Y-42186D01*
X58293Y-42200D01*
X58307Y-42229D01*
X58307Y-42271D01*
X58293Y-42300D01*
X58278Y-42314D01*
X58250Y-42329D01*
X58135Y-42329D01*
X58593Y-42471D02*
X58421Y-42471D01*
X58507Y-42471D02*
X58507Y-42171D01*
X58478Y-42214D01*
X58450Y-42243D01*
X58421Y-42257D01*
X58864Y-42171D02*
X58721Y-42171D01*
X58707Y-42314D01*
X58721Y-42300D01*
X58750Y-42286D01*
X58821Y-42286D01*
X58850Y-42300D01*
X58864Y-42314D01*
X58879Y-42343D01*
X58879Y-42414D01*
X58864Y-42443D01*
X58850Y-42457D01*
X58821Y-42471D01*
X58750Y-42471D01*
X58721Y-42457D01*
X58707Y-42443D01*
X52257Y-48221D02*
X52157Y-48079D01*
X52085Y-48221D02*
X52085Y-47921D01*
X52200Y-47921D01*
X52228Y-47936D01*
X52243Y-47950D01*
X52257Y-47979D01*
X52257Y-48021D01*
X52243Y-48050D01*
X52228Y-48064D01*
X52200Y-48079D01*
X52085Y-48079D01*
X52543Y-48221D02*
X52371Y-48221D01*
X52457Y-48221D02*
X52457Y-47921D01*
X52428Y-47964D01*
X52400Y-47993D01*
X52371Y-48007D01*
X52800Y-48021D02*
X52800Y-48221D01*
X52729Y-47907D02*
X52657Y-48121D01*
X52843Y-48121D01*
X50957Y-48221D02*
X50857Y-48079D01*
X50785Y-48221D02*
X50785Y-47921D01*
X50900Y-47921D01*
X50928Y-47936D01*
X50943Y-47950D01*
X50957Y-47979D01*
X50957Y-48021D01*
X50943Y-48050D01*
X50928Y-48064D01*
X50900Y-48079D01*
X50785Y-48079D01*
X51243Y-48221D02*
X51071Y-48221D01*
X51157Y-48221D02*
X51157Y-47921D01*
X51128Y-47964D01*
X51100Y-47993D01*
X51071Y-48007D01*
X51343Y-47921D02*
X51529Y-47921D01*
X51429Y-48036D01*
X51471Y-48036D01*
X51500Y-48050D01*
X51514Y-48064D01*
X51529Y-48093D01*
X51529Y-48164D01*
X51514Y-48193D01*
X51500Y-48207D01*
X51471Y-48221D01*
X51386Y-48221D01*
X51357Y-48207D01*
X51343Y-48193D01*
X52171Y-35793D02*
X52029Y-35893D01*
X52171Y-35965D02*
X51871Y-35965D01*
X51871Y-35850D01*
X51886Y-35822D01*
X51900Y-35807D01*
X51929Y-35793D01*
X51971Y-35793D01*
X52000Y-35807D01*
X52014Y-35822D01*
X52029Y-35850D01*
X52029Y-35965D01*
X51900Y-35679D02*
X51886Y-35665D01*
X51871Y-35636D01*
X51871Y-35565D01*
X51886Y-35536D01*
X51900Y-35522D01*
X51929Y-35507D01*
X51957Y-35507D01*
X52000Y-35522D01*
X52171Y-35693D01*
X52171Y-35507D01*
X51971Y-35250D02*
X52171Y-35250D01*
X51857Y-35321D02*
X52071Y-35393D01*
X52071Y-35207D01*
X46321Y-34793D02*
X46179Y-34893D01*
X46321Y-34965D02*
X46021Y-34965D01*
X46021Y-34850D01*
X46036Y-34822D01*
X46050Y-34807D01*
X46079Y-34793D01*
X46121Y-34793D01*
X46150Y-34807D01*
X46164Y-34822D01*
X46179Y-34850D01*
X46179Y-34965D01*
X46050Y-34679D02*
X46036Y-34665D01*
X46021Y-34636D01*
X46021Y-34565D01*
X46036Y-34536D01*
X46050Y-34522D01*
X46079Y-34507D01*
X46107Y-34507D01*
X46150Y-34522D01*
X46321Y-34693D01*
X46321Y-34507D01*
X46021Y-34236D02*
X46021Y-34379D01*
X46164Y-34393D01*
X46150Y-34379D01*
X46136Y-34350D01*
X46136Y-34279D01*
X46150Y-34250D01*
X46164Y-34236D01*
X46193Y-34221D01*
X46264Y-34221D01*
X46293Y-34236D01*
X46307Y-34250D01*
X46321Y-34279D01*
X46321Y-34350D01*
X46307Y-34379D01*
X46293Y-34393D01*
X46757Y-37021D02*
X46657Y-36879D01*
X46585Y-37021D02*
X46585Y-36721D01*
X46700Y-36721D01*
X46728Y-36736D01*
X46743Y-36750D01*
X46757Y-36779D01*
X46757Y-36821D01*
X46743Y-36850D01*
X46728Y-36864D01*
X46700Y-36879D01*
X46585Y-36879D01*
X46871Y-36750D02*
X46885Y-36736D01*
X46914Y-36721D01*
X46985Y-36721D01*
X47014Y-36736D01*
X47028Y-36750D01*
X47043Y-36779D01*
X47043Y-36807D01*
X47028Y-36850D01*
X46857Y-37021D01*
X47043Y-37021D01*
X47300Y-36721D02*
X47243Y-36721D01*
X47214Y-36736D01*
X47200Y-36750D01*
X47171Y-36793D01*
X47157Y-36850D01*
X47157Y-36964D01*
X47171Y-36993D01*
X47186Y-37007D01*
X47214Y-37021D01*
X47271Y-37021D01*
X47300Y-37007D01*
X47314Y-36993D01*
X47329Y-36964D01*
X47329Y-36893D01*
X47314Y-36864D01*
X47300Y-36850D01*
X47271Y-36836D01*
X47214Y-36836D01*
X47186Y-36850D01*
X47171Y-36864D01*
X47157Y-36893D01*
X53600Y-41393D02*
X53586Y-41407D01*
X53543Y-41421D01*
X53514Y-41421D01*
X53471Y-41407D01*
X53443Y-41379D01*
X53428Y-41350D01*
X53414Y-41293D01*
X53414Y-41250D01*
X53428Y-41193D01*
X53443Y-41164D01*
X53471Y-41136D01*
X53514Y-41121D01*
X53543Y-41121D01*
X53586Y-41136D01*
X53600Y-41150D01*
X53886Y-41421D02*
X53714Y-41421D01*
X53800Y-41421D02*
X53800Y-41121D01*
X53771Y-41164D01*
X53743Y-41193D01*
X53714Y-41207D01*
X35607Y-42471D02*
X35507Y-42329D01*
X35435Y-42471D02*
X35435Y-42171D01*
X35550Y-42171D01*
X35578Y-42186D01*
X35593Y-42200D01*
X35607Y-42229D01*
X35607Y-42271D01*
X35593Y-42300D01*
X35578Y-42314D01*
X35550Y-42329D01*
X35435Y-42329D01*
X35721Y-42200D02*
X35735Y-42186D01*
X35764Y-42171D01*
X35835Y-42171D01*
X35864Y-42186D01*
X35878Y-42200D01*
X35893Y-42229D01*
X35893Y-42257D01*
X35878Y-42300D01*
X35707Y-42471D01*
X35893Y-42471D01*
X36064Y-42300D02*
X36036Y-42286D01*
X36021Y-42271D01*
X36007Y-42243D01*
X36007Y-42229D01*
X36021Y-42200D01*
X36036Y-42186D01*
X36064Y-42171D01*
X36121Y-42171D01*
X36150Y-42186D01*
X36164Y-42200D01*
X36179Y-42229D01*
X36179Y-42243D01*
X36164Y-42271D01*
X36150Y-42286D01*
X36121Y-42300D01*
X36064Y-42300D01*
X36036Y-42314D01*
X36021Y-42329D01*
X36007Y-42357D01*
X36007Y-42414D01*
X36021Y-42443D01*
X36036Y-42457D01*
X36064Y-42471D01*
X36121Y-42471D01*
X36150Y-42457D01*
X36164Y-42443D01*
X36179Y-42414D01*
X36179Y-42357D01*
X36164Y-42329D01*
X36150Y-42314D01*
X36121Y-42300D01*
X46121Y-37693D02*
X45979Y-37793D01*
X46121Y-37865D02*
X45821Y-37865D01*
X45821Y-37750D01*
X45836Y-37722D01*
X45850Y-37707D01*
X45879Y-37693D01*
X45921Y-37693D01*
X45950Y-37707D01*
X45964Y-37722D01*
X45979Y-37750D01*
X45979Y-37865D01*
X45850Y-37579D02*
X45836Y-37565D01*
X45821Y-37536D01*
X45821Y-37465D01*
X45836Y-37436D01*
X45850Y-37422D01*
X45879Y-37407D01*
X45907Y-37407D01*
X45950Y-37422D01*
X46121Y-37593D01*
X46121Y-37407D01*
X46121Y-37264D02*
X46121Y-37207D01*
X46107Y-37179D01*
X46093Y-37164D01*
X46050Y-37136D01*
X45993Y-37121D01*
X45879Y-37121D01*
X45850Y-37136D01*
X45836Y-37150D01*
X45821Y-37179D01*
X45821Y-37236D01*
X45836Y-37264D01*
X45850Y-37279D01*
X45879Y-37293D01*
X45950Y-37293D01*
X45979Y-37279D01*
X45993Y-37264D01*
X46007Y-37236D01*
X46007Y-37179D01*
X45993Y-37150D01*
X45979Y-37136D01*
X45950Y-37121D01*
X41021Y-40543D02*
X40879Y-40643D01*
X41021Y-40715D02*
X40721Y-40715D01*
X40721Y-40600D01*
X40736Y-40572D01*
X40750Y-40557D01*
X40779Y-40543D01*
X40821Y-40543D01*
X40850Y-40557D01*
X40864Y-40572D01*
X40879Y-40600D01*
X40879Y-40715D01*
X40721Y-40443D02*
X40721Y-40257D01*
X40836Y-40357D01*
X40836Y-40315D01*
X40850Y-40286D01*
X40864Y-40272D01*
X40893Y-40257D01*
X40964Y-40257D01*
X40993Y-40272D01*
X41007Y-40286D01*
X41021Y-40315D01*
X41021Y-40400D01*
X41007Y-40429D01*
X40993Y-40443D01*
X40721Y-40071D02*
X40721Y-40043D01*
X40736Y-40014D01*
X40750Y-40000D01*
X40779Y-39986D01*
X40836Y-39971D01*
X40907Y-39971D01*
X40964Y-39986D01*
X40993Y-40000D01*
X41007Y-40014D01*
X41021Y-40043D01*
X41021Y-40071D01*
X41007Y-40100D01*
X40993Y-40114D01*
X40964Y-40129D01*
X40907Y-40143D01*
X40836Y-40143D01*
X40779Y-40129D01*
X40750Y-40114D01*
X40736Y-40100D01*
X40721Y-40071D01*
X49057Y-36971D02*
X48957Y-36829D01*
X48885Y-36971D02*
X48885Y-36671D01*
X49000Y-36671D01*
X49028Y-36686D01*
X49043Y-36700D01*
X49057Y-36729D01*
X49057Y-36771D01*
X49043Y-36800D01*
X49028Y-36814D01*
X49000Y-36829D01*
X48885Y-36829D01*
X49157Y-36671D02*
X49343Y-36671D01*
X49243Y-36786D01*
X49285Y-36786D01*
X49314Y-36800D01*
X49328Y-36814D01*
X49343Y-36843D01*
X49343Y-36914D01*
X49328Y-36943D01*
X49314Y-36957D01*
X49285Y-36971D01*
X49200Y-36971D01*
X49171Y-36957D01*
X49157Y-36943D01*
X49629Y-36971D02*
X49457Y-36971D01*
X49543Y-36971D02*
X49543Y-36671D01*
X49514Y-36714D01*
X49486Y-36743D01*
X49457Y-36757D01*
X46121Y-40543D02*
X45979Y-40643D01*
X46121Y-40715D02*
X45821Y-40715D01*
X45821Y-40600D01*
X45836Y-40572D01*
X45850Y-40557D01*
X45879Y-40543D01*
X45921Y-40543D01*
X45950Y-40557D01*
X45964Y-40572D01*
X45979Y-40600D01*
X45979Y-40715D01*
X45821Y-40443D02*
X45821Y-40257D01*
X45936Y-40357D01*
X45936Y-40315D01*
X45950Y-40286D01*
X45964Y-40272D01*
X45993Y-40257D01*
X46064Y-40257D01*
X46093Y-40272D01*
X46107Y-40286D01*
X46121Y-40315D01*
X46121Y-40400D01*
X46107Y-40429D01*
X46093Y-40443D01*
X45850Y-40143D02*
X45836Y-40129D01*
X45821Y-40100D01*
X45821Y-40029D01*
X45836Y-40000D01*
X45850Y-39986D01*
X45879Y-39971D01*
X45907Y-39971D01*
X45950Y-39986D01*
X46121Y-40157D01*
X46121Y-39971D01*
X46921Y-32293D02*
X46779Y-32393D01*
X46921Y-32465D02*
X46621Y-32465D01*
X46621Y-32350D01*
X46636Y-32322D01*
X46650Y-32307D01*
X46679Y-32293D01*
X46721Y-32293D01*
X46750Y-32307D01*
X46764Y-32322D01*
X46779Y-32350D01*
X46779Y-32465D01*
X46621Y-32193D02*
X46621Y-32007D01*
X46736Y-32107D01*
X46736Y-32065D01*
X46750Y-32036D01*
X46764Y-32022D01*
X46793Y-32007D01*
X46864Y-32007D01*
X46893Y-32022D01*
X46907Y-32036D01*
X46921Y-32065D01*
X46921Y-32150D01*
X46907Y-32179D01*
X46893Y-32193D01*
X46621Y-31907D02*
X46621Y-31721D01*
X46736Y-31821D01*
X46736Y-31779D01*
X46750Y-31750D01*
X46764Y-31736D01*
X46793Y-31721D01*
X46864Y-31721D01*
X46893Y-31736D01*
X46907Y-31750D01*
X46921Y-31779D01*
X46921Y-31864D01*
X46907Y-31893D01*
X46893Y-31907D01*
X45921Y-34443D02*
X45779Y-34543D01*
X45921Y-34615D02*
X45621Y-34615D01*
X45621Y-34500D01*
X45636Y-34472D01*
X45650Y-34457D01*
X45679Y-34443D01*
X45721Y-34443D01*
X45750Y-34457D01*
X45764Y-34472D01*
X45779Y-34500D01*
X45779Y-34615D01*
X45621Y-34343D02*
X45621Y-34157D01*
X45736Y-34257D01*
X45736Y-34215D01*
X45750Y-34186D01*
X45764Y-34172D01*
X45793Y-34157D01*
X45864Y-34157D01*
X45893Y-34172D01*
X45907Y-34186D01*
X45921Y-34215D01*
X45921Y-34300D01*
X45907Y-34329D01*
X45893Y-34343D01*
X45721Y-33900D02*
X45921Y-33900D01*
X45607Y-33971D02*
X45821Y-34043D01*
X45821Y-33857D01*
X51057Y-36971D02*
X50957Y-36829D01*
X50885Y-36971D02*
X50885Y-36671D01*
X51000Y-36671D01*
X51028Y-36686D01*
X51043Y-36700D01*
X51057Y-36729D01*
X51057Y-36771D01*
X51043Y-36800D01*
X51028Y-36814D01*
X51000Y-36829D01*
X50885Y-36829D01*
X51157Y-36671D02*
X51343Y-36671D01*
X51243Y-36786D01*
X51285Y-36786D01*
X51314Y-36800D01*
X51328Y-36814D01*
X51343Y-36843D01*
X51343Y-36914D01*
X51328Y-36943D01*
X51314Y-36957D01*
X51285Y-36971D01*
X51200Y-36971D01*
X51171Y-36957D01*
X51157Y-36943D01*
X51614Y-36671D02*
X51471Y-36671D01*
X51457Y-36814D01*
X51471Y-36800D01*
X51500Y-36786D01*
X51571Y-36786D01*
X51600Y-36800D01*
X51614Y-36814D01*
X51629Y-36843D01*
X51629Y-36914D01*
X51614Y-36943D01*
X51600Y-36957D01*
X51571Y-36971D01*
X51500Y-36971D01*
X51471Y-36957D01*
X51457Y-36943D01*
X50057Y-36971D02*
X49957Y-36829D01*
X49885Y-36971D02*
X49885Y-36671D01*
X50000Y-36671D01*
X50028Y-36686D01*
X50043Y-36700D01*
X50057Y-36729D01*
X50057Y-36771D01*
X50043Y-36800D01*
X50028Y-36814D01*
X50000Y-36829D01*
X49885Y-36829D01*
X50157Y-36671D02*
X50343Y-36671D01*
X50243Y-36786D01*
X50285Y-36786D01*
X50314Y-36800D01*
X50328Y-36814D01*
X50343Y-36843D01*
X50343Y-36914D01*
X50328Y-36943D01*
X50314Y-36957D01*
X50285Y-36971D01*
X50200Y-36971D01*
X50171Y-36957D01*
X50157Y-36943D01*
X50600Y-36671D02*
X50543Y-36671D01*
X50514Y-36686D01*
X50500Y-36700D01*
X50471Y-36743D01*
X50457Y-36800D01*
X50457Y-36914D01*
X50471Y-36943D01*
X50486Y-36957D01*
X50514Y-36971D01*
X50571Y-36971D01*
X50600Y-36957D01*
X50614Y-36943D01*
X50629Y-36914D01*
X50629Y-36843D01*
X50614Y-36814D01*
X50600Y-36800D01*
X50571Y-36786D01*
X50514Y-36786D01*
X50486Y-36800D01*
X50471Y-36814D01*
X50457Y-36843D01*
X52600Y-36993D02*
X52586Y-37007D01*
X52543Y-37021D01*
X52514Y-37021D01*
X52471Y-37007D01*
X52443Y-36979D01*
X52428Y-36950D01*
X52414Y-36893D01*
X52414Y-36850D01*
X52428Y-36793D01*
X52443Y-36764D01*
X52471Y-36736D01*
X52514Y-36721D01*
X52543Y-36721D01*
X52586Y-36736D01*
X52600Y-36750D01*
X52714Y-36750D02*
X52728Y-36736D01*
X52757Y-36721D01*
X52828Y-36721D01*
X52857Y-36736D01*
X52871Y-36750D01*
X52886Y-36779D01*
X52886Y-36807D01*
X52871Y-36850D01*
X52700Y-37021D01*
X52886Y-37021D01*
X58550Y-38743D02*
X58536Y-38757D01*
X58493Y-38771D01*
X58464Y-38771D01*
X58421Y-38757D01*
X58393Y-38729D01*
X58378Y-38700D01*
X58364Y-38643D01*
X58364Y-38600D01*
X58378Y-38543D01*
X58393Y-38514D01*
X58421Y-38486D01*
X58464Y-38471D01*
X58493Y-38471D01*
X58536Y-38486D01*
X58550Y-38500D01*
X58807Y-38471D02*
X58750Y-38471D01*
X58721Y-38486D01*
X58707Y-38500D01*
X58678Y-38543D01*
X58664Y-38600D01*
X58664Y-38714D01*
X58678Y-38743D01*
X58693Y-38757D01*
X58721Y-38771D01*
X58778Y-38771D01*
X58807Y-38757D01*
X58821Y-38743D01*
X58836Y-38714D01*
X58836Y-38643D01*
X58821Y-38614D01*
X58807Y-38600D01*
X58778Y-38586D01*
X58721Y-38586D01*
X58693Y-38600D01*
X58678Y-38614D01*
X58664Y-38643D01*
X64200Y-38443D02*
X64186Y-38457D01*
X64143Y-38471D01*
X64114Y-38471D01*
X64071Y-38457D01*
X64043Y-38429D01*
X64028Y-38400D01*
X64014Y-38343D01*
X64014Y-38300D01*
X64028Y-38243D01*
X64043Y-38214D01*
X64071Y-38186D01*
X64114Y-38171D01*
X64143Y-38171D01*
X64186Y-38186D01*
X64200Y-38200D01*
X64300Y-38171D02*
X64500Y-38171D01*
X64371Y-38471D01*
X64200Y-39093D02*
X64186Y-39107D01*
X64143Y-39121D01*
X64114Y-39121D01*
X64071Y-39107D01*
X64043Y-39079D01*
X64028Y-39050D01*
X64014Y-38993D01*
X64014Y-38950D01*
X64028Y-38893D01*
X64043Y-38864D01*
X64071Y-38836D01*
X64114Y-38821D01*
X64143Y-38821D01*
X64186Y-38836D01*
X64200Y-38850D01*
X64371Y-38950D02*
X64343Y-38936D01*
X64328Y-38921D01*
X64314Y-38893D01*
X64314Y-38879D01*
X64328Y-38850D01*
X64343Y-38836D01*
X64371Y-38821D01*
X64428Y-38821D01*
X64457Y-38836D01*
X64471Y-38850D01*
X64486Y-38879D01*
X64486Y-38893D01*
X64471Y-38921D01*
X64457Y-38936D01*
X64428Y-38950D01*
X64371Y-38950D01*
X64343Y-38964D01*
X64328Y-38979D01*
X64314Y-39007D01*
X64314Y-39064D01*
X64328Y-39093D01*
X64343Y-39107D01*
X64371Y-39121D01*
X64428Y-39121D01*
X64457Y-39107D01*
X64471Y-39093D01*
X64486Y-39064D01*
X64486Y-39007D01*
X64471Y-38979D01*
X64457Y-38964D01*
X64428Y-38950D01*
X64200Y-37693D02*
X64186Y-37707D01*
X64143Y-37721D01*
X64114Y-37721D01*
X64071Y-37707D01*
X64043Y-37679D01*
X64028Y-37650D01*
X64014Y-37593D01*
X64014Y-37550D01*
X64028Y-37493D01*
X64043Y-37464D01*
X64071Y-37436D01*
X64114Y-37421D01*
X64143Y-37421D01*
X64186Y-37436D01*
X64200Y-37450D01*
X64343Y-37721D02*
X64400Y-37721D01*
X64428Y-37707D01*
X64443Y-37693D01*
X64471Y-37650D01*
X64486Y-37593D01*
X64486Y-37479D01*
X64471Y-37450D01*
X64457Y-37436D01*
X64428Y-37421D01*
X64371Y-37421D01*
X64343Y-37436D01*
X64328Y-37450D01*
X64314Y-37479D01*
X64314Y-37550D01*
X64328Y-37579D01*
X64343Y-37593D01*
X64371Y-37607D01*
X64428Y-37607D01*
X64457Y-37593D01*
X64471Y-37579D01*
X64486Y-37550D01*
X52343Y-33343D02*
X52357Y-33357D01*
X52371Y-33400D01*
X52371Y-33429D01*
X52357Y-33472D01*
X52329Y-33500D01*
X52300Y-33515D01*
X52243Y-33529D01*
X52200Y-33529D01*
X52143Y-33515D01*
X52114Y-33500D01*
X52086Y-33472D01*
X52071Y-33429D01*
X52071Y-33400D01*
X52086Y-33357D01*
X52100Y-33343D01*
X52371Y-33057D02*
X52371Y-33229D01*
X52371Y-33143D02*
X52071Y-33143D01*
X52114Y-33172D01*
X52143Y-33200D01*
X52157Y-33229D01*
X52071Y-32871D02*
X52071Y-32843D01*
X52086Y-32814D01*
X52100Y-32800D01*
X52129Y-32786D01*
X52186Y-32771D01*
X52257Y-32771D01*
X52314Y-32786D01*
X52343Y-32800D01*
X52357Y-32814D01*
X52371Y-32843D01*
X52371Y-32871D01*
X52357Y-32900D01*
X52343Y-32914D01*
X52314Y-32929D01*
X52257Y-32943D01*
X52186Y-32943D01*
X52129Y-32929D01*
X52100Y-32914D01*
X52086Y-32900D01*
X52071Y-32871D01*
X49957Y-36493D02*
X49943Y-36507D01*
X49900Y-36521D01*
X49871Y-36521D01*
X49828Y-36507D01*
X49800Y-36479D01*
X49785Y-36450D01*
X49771Y-36393D01*
X49771Y-36350D01*
X49785Y-36293D01*
X49800Y-36264D01*
X49828Y-36236D01*
X49871Y-36221D01*
X49900Y-36221D01*
X49943Y-36236D01*
X49957Y-36250D01*
X50243Y-36521D02*
X50071Y-36521D01*
X50157Y-36521D02*
X50157Y-36221D01*
X50128Y-36264D01*
X50100Y-36293D01*
X50071Y-36307D01*
X50529Y-36521D02*
X50357Y-36521D01*
X50443Y-36521D02*
X50443Y-36221D01*
X50414Y-36264D01*
X50386Y-36293D01*
X50357Y-36307D01*
X36457Y-37093D02*
X36443Y-37107D01*
X36400Y-37121D01*
X36371Y-37121D01*
X36328Y-37107D01*
X36300Y-37079D01*
X36285Y-37050D01*
X36271Y-36993D01*
X36271Y-36950D01*
X36285Y-36893D01*
X36300Y-36864D01*
X36328Y-36836D01*
X36371Y-36821D01*
X36400Y-36821D01*
X36443Y-36836D01*
X36457Y-36850D01*
X36743Y-37121D02*
X36571Y-37121D01*
X36657Y-37121D02*
X36657Y-36821D01*
X36628Y-36864D01*
X36600Y-36893D01*
X36571Y-36907D01*
X36857Y-36850D02*
X36871Y-36836D01*
X36900Y-36821D01*
X36971Y-36821D01*
X37000Y-36836D01*
X37014Y-36850D01*
X37029Y-36879D01*
X37029Y-36907D01*
X37014Y-36950D01*
X36843Y-37121D01*
X37029Y-37121D01*
X39557Y-37093D02*
X39543Y-37107D01*
X39500Y-37121D01*
X39471Y-37121D01*
X39428Y-37107D01*
X39400Y-37079D01*
X39385Y-37050D01*
X39371Y-36993D01*
X39371Y-36950D01*
X39385Y-36893D01*
X39400Y-36864D01*
X39428Y-36836D01*
X39471Y-36821D01*
X39500Y-36821D01*
X39543Y-36836D01*
X39557Y-36850D01*
X39843Y-37121D02*
X39671Y-37121D01*
X39757Y-37121D02*
X39757Y-36821D01*
X39728Y-36864D01*
X39700Y-36893D01*
X39671Y-36907D01*
X39943Y-36821D02*
X40129Y-36821D01*
X40029Y-36936D01*
X40071Y-36936D01*
X40100Y-36950D01*
X40114Y-36964D01*
X40129Y-36993D01*
X40129Y-37064D01*
X40114Y-37093D01*
X40100Y-37107D01*
X40071Y-37121D01*
X39986Y-37121D01*
X39957Y-37107D01*
X39943Y-37093D01*
X42557Y-37093D02*
X42543Y-37107D01*
X42500Y-37121D01*
X42471Y-37121D01*
X42428Y-37107D01*
X42400Y-37079D01*
X42385Y-37050D01*
X42371Y-36993D01*
X42371Y-36950D01*
X42385Y-36893D01*
X42400Y-36864D01*
X42428Y-36836D01*
X42471Y-36821D01*
X42500Y-36821D01*
X42543Y-36836D01*
X42557Y-36850D01*
X42843Y-37121D02*
X42671Y-37121D01*
X42757Y-37121D02*
X42757Y-36821D01*
X42728Y-36864D01*
X42700Y-36893D01*
X42671Y-36907D01*
X43100Y-36921D02*
X43100Y-37121D01*
X43029Y-36807D02*
X42957Y-37021D01*
X43143Y-37021D01*
X45393Y-32243D02*
X45407Y-32257D01*
X45421Y-32300D01*
X45421Y-32329D01*
X45407Y-32372D01*
X45379Y-32400D01*
X45350Y-32415D01*
X45293Y-32429D01*
X45250Y-32429D01*
X45193Y-32415D01*
X45164Y-32400D01*
X45136Y-32372D01*
X45121Y-32329D01*
X45121Y-32300D01*
X45136Y-32257D01*
X45150Y-32243D01*
X45421Y-31957D02*
X45421Y-32129D01*
X45421Y-32043D02*
X45121Y-32043D01*
X45164Y-32072D01*
X45193Y-32100D01*
X45207Y-32129D01*
X45121Y-31686D02*
X45121Y-31829D01*
X45264Y-31843D01*
X45250Y-31829D01*
X45236Y-31800D01*
X45236Y-31729D01*
X45250Y-31700D01*
X45264Y-31686D01*
X45293Y-31671D01*
X45364Y-31671D01*
X45393Y-31686D01*
X45407Y-31700D01*
X45421Y-31729D01*
X45421Y-31800D01*
X45407Y-31829D01*
X45393Y-31843D01*
X56950Y-38743D02*
X56936Y-38757D01*
X56893Y-38771D01*
X56864Y-38771D01*
X56821Y-38757D01*
X56793Y-38729D01*
X56778Y-38700D01*
X56764Y-38643D01*
X56764Y-38600D01*
X56778Y-38543D01*
X56793Y-38514D01*
X56821Y-38486D01*
X56864Y-38471D01*
X56893Y-38471D01*
X56936Y-38486D01*
X56950Y-38500D01*
X57221Y-38471D02*
X57078Y-38471D01*
X57064Y-38614D01*
X57078Y-38600D01*
X57107Y-38586D01*
X57178Y-38586D01*
X57207Y-38600D01*
X57221Y-38614D01*
X57236Y-38643D01*
X57236Y-38714D01*
X57221Y-38743D01*
X57207Y-38757D01*
X57178Y-38771D01*
X57107Y-38771D01*
X57078Y-38757D01*
X57064Y-38743D01*
X62843Y-42250D02*
X62857Y-42264D01*
X62871Y-42307D01*
X62871Y-42336D01*
X62857Y-42379D01*
X62829Y-42407D01*
X62800Y-42422D01*
X62743Y-42436D01*
X62700Y-42436D01*
X62643Y-42422D01*
X62614Y-42407D01*
X62586Y-42379D01*
X62571Y-42336D01*
X62571Y-42307D01*
X62586Y-42264D01*
X62600Y-42250D01*
X62671Y-41993D02*
X62871Y-41993D01*
X62557Y-42064D02*
X62771Y-42136D01*
X62771Y-41950D01*
X60743Y-40850D02*
X60757Y-40864D01*
X60771Y-40907D01*
X60771Y-40936D01*
X60757Y-40979D01*
X60729Y-41007D01*
X60700Y-41022D01*
X60643Y-41036D01*
X60600Y-41036D01*
X60543Y-41022D01*
X60514Y-41007D01*
X60486Y-40979D01*
X60471Y-40936D01*
X60471Y-40907D01*
X60486Y-40864D01*
X60500Y-40850D01*
X60471Y-40750D02*
X60471Y-40564D01*
X60586Y-40664D01*
X60586Y-40622D01*
X60600Y-40593D01*
X60614Y-40579D01*
X60643Y-40564D01*
X60714Y-40564D01*
X60743Y-40579D01*
X60757Y-40593D01*
X60771Y-40622D01*
X60771Y-40707D01*
X60757Y-40736D01*
X60743Y-40750D01*
X52207Y-47121D02*
X52107Y-46979D01*
X52035Y-47121D02*
X52035Y-46821D01*
X52150Y-46821D01*
X52178Y-46836D01*
X52193Y-46850D01*
X52207Y-46879D01*
X52207Y-46921D01*
X52193Y-46950D01*
X52178Y-46964D01*
X52150Y-46979D01*
X52035Y-46979D01*
X52493Y-47121D02*
X52321Y-47121D01*
X52407Y-47121D02*
X52407Y-46821D01*
X52378Y-46864D01*
X52350Y-46893D01*
X52321Y-46907D01*
X52607Y-46850D02*
X52621Y-46836D01*
X52650Y-46821D01*
X52721Y-46821D01*
X52750Y-46836D01*
X52764Y-46850D01*
X52779Y-46879D01*
X52779Y-46907D01*
X52764Y-46950D01*
X52593Y-47121D01*
X52779Y-47121D01*
X64271Y-42300D02*
X64129Y-42400D01*
X64271Y-42472D02*
X63971Y-42472D01*
X63971Y-42357D01*
X63986Y-42329D01*
X64000Y-42314D01*
X64029Y-42300D01*
X64071Y-42300D01*
X64100Y-42314D01*
X64114Y-42329D01*
X64129Y-42357D01*
X64129Y-42472D01*
X64271Y-42014D02*
X64271Y-42186D01*
X64271Y-42100D02*
X63971Y-42100D01*
X64014Y-42129D01*
X64043Y-42157D01*
X64057Y-42186D01*
X61471Y-44150D02*
X61329Y-44250D01*
X61471Y-44322D02*
X61171Y-44322D01*
X61171Y-44207D01*
X61186Y-44179D01*
X61200Y-44164D01*
X61229Y-44150D01*
X61271Y-44150D01*
X61300Y-44164D01*
X61314Y-44179D01*
X61329Y-44207D01*
X61329Y-44322D01*
X61200Y-44036D02*
X61186Y-44022D01*
X61171Y-43993D01*
X61171Y-43922D01*
X61186Y-43893D01*
X61200Y-43879D01*
X61229Y-43864D01*
X61257Y-43864D01*
X61300Y-43879D01*
X61471Y-44050D01*
X61471Y-43864D01*
X63571Y-44100D02*
X63429Y-44200D01*
X63571Y-44272D02*
X63271Y-44272D01*
X63271Y-44157D01*
X63286Y-44129D01*
X63300Y-44114D01*
X63329Y-44100D01*
X63371Y-44100D01*
X63400Y-44114D01*
X63414Y-44129D01*
X63429Y-44157D01*
X63429Y-44272D01*
X63271Y-44000D02*
X63271Y-43814D01*
X63386Y-43914D01*
X63386Y-43872D01*
X63400Y-43843D01*
X63414Y-43829D01*
X63443Y-43814D01*
X63514Y-43814D01*
X63543Y-43829D01*
X63557Y-43843D01*
X63571Y-43872D01*
X63571Y-43957D01*
X63557Y-43986D01*
X63543Y-44000D01*
X61721Y-40850D02*
X61579Y-40950D01*
X61721Y-41022D02*
X61421Y-41022D01*
X61421Y-40907D01*
X61436Y-40879D01*
X61450Y-40864D01*
X61479Y-40850D01*
X61521Y-40850D01*
X61550Y-40864D01*
X61564Y-40879D01*
X61579Y-40907D01*
X61579Y-41022D01*
X61521Y-40593D02*
X61721Y-40593D01*
X61407Y-40664D02*
X61621Y-40736D01*
X61621Y-40550D01*
X60071Y-40850D02*
X59929Y-40950D01*
X60071Y-41022D02*
X59771Y-41022D01*
X59771Y-40907D01*
X59786Y-40879D01*
X59800Y-40864D01*
X59829Y-40850D01*
X59871Y-40850D01*
X59900Y-40864D01*
X59914Y-40879D01*
X59929Y-40907D01*
X59929Y-41022D01*
X59771Y-40579D02*
X59771Y-40722D01*
X59914Y-40736D01*
X59900Y-40722D01*
X59886Y-40693D01*
X59886Y-40622D01*
X59900Y-40593D01*
X59914Y-40579D01*
X59943Y-40564D01*
X60014Y-40564D01*
X60043Y-40579D01*
X60057Y-40593D01*
X60071Y-40622D01*
X60071Y-40693D01*
X60057Y-40722D01*
X60043Y-40736D01*
X50150Y-45721D02*
X50050Y-45579D01*
X49978Y-45721D02*
X49978Y-45421D01*
X50093Y-45421D01*
X50121Y-45436D01*
X50136Y-45450D01*
X50150Y-45479D01*
X50150Y-45521D01*
X50136Y-45550D01*
X50121Y-45564D01*
X50093Y-45579D01*
X49978Y-45579D01*
X50407Y-45421D02*
X50350Y-45421D01*
X50321Y-45436D01*
X50307Y-45450D01*
X50278Y-45493D01*
X50264Y-45550D01*
X50264Y-45664D01*
X50278Y-45693D01*
X50293Y-45707D01*
X50321Y-45721D01*
X50378Y-45721D01*
X50407Y-45707D01*
X50421Y-45693D01*
X50436Y-45664D01*
X50436Y-45593D01*
X50421Y-45564D01*
X50407Y-45550D01*
X50378Y-45536D01*
X50321Y-45536D01*
X50293Y-45550D01*
X50278Y-45564D01*
X50264Y-45593D01*
X53471Y-45650D02*
X53329Y-45750D01*
X53471Y-45822D02*
X53171Y-45822D01*
X53171Y-45707D01*
X53186Y-45679D01*
X53200Y-45664D01*
X53229Y-45650D01*
X53271Y-45650D01*
X53300Y-45664D01*
X53314Y-45679D01*
X53329Y-45707D01*
X53329Y-45822D01*
X53171Y-45550D02*
X53171Y-45350D01*
X53471Y-45479D01*
X62171Y-44100D02*
X62029Y-44200D01*
X62171Y-44272D02*
X61871Y-44272D01*
X61871Y-44157D01*
X61886Y-44129D01*
X61900Y-44114D01*
X61929Y-44100D01*
X61971Y-44100D01*
X62000Y-44114D01*
X62014Y-44129D01*
X62029Y-44157D01*
X62029Y-44272D01*
X62000Y-43929D02*
X61986Y-43957D01*
X61971Y-43972D01*
X61943Y-43986D01*
X61929Y-43986D01*
X61900Y-43972D01*
X61886Y-43957D01*
X61871Y-43929D01*
X61871Y-43872D01*
X61886Y-43843D01*
X61900Y-43829D01*
X61929Y-43814D01*
X61943Y-43814D01*
X61971Y-43829D01*
X61986Y-43843D01*
X62000Y-43872D01*
X62000Y-43929D01*
X62014Y-43957D01*
X62029Y-43972D01*
X62057Y-43986D01*
X62114Y-43986D01*
X62143Y-43972D01*
X62157Y-43957D01*
X62171Y-43929D01*
X62171Y-43872D01*
X62157Y-43843D01*
X62143Y-43829D01*
X62114Y-43814D01*
X62057Y-43814D01*
X62029Y-43829D01*
X62014Y-43843D01*
X62000Y-43872D01*
X50550Y-44621D02*
X50450Y-44479D01*
X50378Y-44621D02*
X50378Y-44321D01*
X50493Y-44321D01*
X50521Y-44336D01*
X50536Y-44350D01*
X50550Y-44379D01*
X50550Y-44421D01*
X50536Y-44450D01*
X50521Y-44464D01*
X50493Y-44479D01*
X50378Y-44479D01*
X50693Y-44621D02*
X50750Y-44621D01*
X50778Y-44607D01*
X50793Y-44593D01*
X50821Y-44550D01*
X50836Y-44493D01*
X50836Y-44379D01*
X50821Y-44350D01*
X50807Y-44336D01*
X50778Y-44321D01*
X50721Y-44321D01*
X50693Y-44336D01*
X50678Y-44350D01*
X50664Y-44379D01*
X50664Y-44450D01*
X50678Y-44479D01*
X50693Y-44493D01*
X50721Y-44507D01*
X50778Y-44507D01*
X50807Y-44493D01*
X50821Y-44479D01*
X50836Y-44450D01*
X53671Y-45093D02*
X53529Y-45193D01*
X53671Y-45265D02*
X53371Y-45265D01*
X53371Y-45150D01*
X53386Y-45122D01*
X53400Y-45107D01*
X53429Y-45093D01*
X53471Y-45093D01*
X53500Y-45107D01*
X53514Y-45122D01*
X53529Y-45150D01*
X53529Y-45265D01*
X53671Y-44807D02*
X53671Y-44979D01*
X53671Y-44893D02*
X53371Y-44893D01*
X53414Y-44922D01*
X53443Y-44950D01*
X53457Y-44979D01*
X53371Y-44621D02*
X53371Y-44593D01*
X53386Y-44564D01*
X53400Y-44550D01*
X53429Y-44536D01*
X53486Y-44521D01*
X53557Y-44521D01*
X53614Y-44536D01*
X53643Y-44550D01*
X53657Y-44564D01*
X53671Y-44593D01*
X53671Y-44621D01*
X53657Y-44650D01*
X53643Y-44664D01*
X53614Y-44679D01*
X53557Y-44693D01*
X53486Y-44693D01*
X53429Y-44679D01*
X53400Y-44664D01*
X53386Y-44650D01*
X53371Y-44621D01*
X50957Y-47121D02*
X50857Y-46979D01*
X50785Y-47121D02*
X50785Y-46821D01*
X50900Y-46821D01*
X50928Y-46836D01*
X50943Y-46850D01*
X50957Y-46879D01*
X50957Y-46921D01*
X50943Y-46950D01*
X50928Y-46964D01*
X50900Y-46979D01*
X50785Y-46979D01*
X51243Y-47121D02*
X51071Y-47121D01*
X51157Y-47121D02*
X51157Y-46821D01*
X51128Y-46864D01*
X51100Y-46893D01*
X51071Y-46907D01*
X51529Y-47121D02*
X51357Y-47121D01*
X51443Y-47121D02*
X51443Y-46821D01*
X51414Y-46864D01*
X51386Y-46893D01*
X51357Y-46907D01*
G54D11*
X58715Y-30800D02*
X59034Y-30800D01*
X59072Y-30781D01*
X59091Y-30763D01*
X59109Y-30725D01*
X59109Y-30650D01*
X59091Y-30613D01*
X59072Y-30594D01*
X59034Y-30575D01*
X58715Y-30575D01*
X58753Y-30406D02*
X58734Y-30387D01*
X58715Y-30350D01*
X58715Y-30256D01*
X58734Y-30218D01*
X58753Y-30200D01*
X58791Y-30181D01*
X58828Y-30181D01*
X58884Y-30200D01*
X59109Y-30425D01*
X59109Y-30181D01*
G54D14*
X57415Y-34993D02*
X57815Y-35593D01*
X57815Y-34993D02*
X57415Y-35593D01*
X58357Y-35593D02*
X58014Y-35593D01*
X58186Y-35593D02*
X58186Y-34993D01*
X58129Y-35079D01*
X58071Y-35136D01*
X58014Y-35164D01*
X62200Y-45593D02*
X62200Y-46021D01*
X62172Y-46107D01*
X62115Y-46164D01*
X62029Y-46193D01*
X61972Y-46193D01*
X62772Y-45593D02*
X62486Y-45593D01*
X62457Y-45879D01*
X62486Y-45850D01*
X62543Y-45821D01*
X62686Y-45821D01*
X62743Y-45850D01*
X62772Y-45879D01*
X62800Y-45936D01*
X62800Y-46079D01*
X62772Y-46136D01*
X62743Y-46164D01*
X62686Y-46193D01*
X62543Y-46193D01*
X62486Y-46164D01*
X62457Y-46136D01*
X49100Y-46443D02*
X49100Y-46871D01*
X49072Y-46957D01*
X49015Y-47014D01*
X48929Y-47043D01*
X48872Y-47043D01*
X49643Y-46643D02*
X49643Y-47043D01*
X49500Y-46414D02*
X49357Y-46843D01*
X49729Y-46843D01*
X56950Y-45093D02*
X56950Y-45521D01*
X56922Y-45607D01*
X56865Y-45664D01*
X56779Y-45693D01*
X56722Y-45693D01*
X57179Y-45093D02*
X57550Y-45093D01*
X57350Y-45321D01*
X57436Y-45321D01*
X57493Y-45350D01*
X57522Y-45379D01*
X57550Y-45436D01*
X57550Y-45579D01*
X57522Y-45636D01*
X57493Y-45664D01*
X57436Y-45693D01*
X57264Y-45693D01*
X57207Y-45664D01*
X57179Y-45636D01*
X54200Y-29743D02*
X54200Y-30171D01*
X54172Y-30257D01*
X54115Y-30314D01*
X54029Y-30343D01*
X53972Y-30343D01*
X54800Y-30343D02*
X54457Y-30343D01*
X54629Y-30343D02*
X54629Y-29743D01*
X54572Y-29829D01*
X54514Y-29886D01*
X54457Y-29914D01*
X43415Y-44643D02*
X43215Y-44357D01*
X43072Y-44643D02*
X43072Y-44043D01*
X43300Y-44043D01*
X43358Y-44071D01*
X43386Y-44100D01*
X43415Y-44157D01*
X43415Y-44243D01*
X43386Y-44300D01*
X43358Y-44329D01*
X43300Y-44357D01*
X43072Y-44357D01*
X43615Y-44043D02*
X43986Y-44043D01*
X43786Y-44271D01*
X43872Y-44271D01*
X43929Y-44300D01*
X43958Y-44329D01*
X43986Y-44386D01*
X43986Y-44529D01*
X43958Y-44586D01*
X43929Y-44614D01*
X43872Y-44643D01*
X43700Y-44643D01*
X43643Y-44614D01*
X43615Y-44586D01*
X44186Y-44043D02*
X44586Y-44043D01*
X44329Y-44643D01*
G54D15*
X61578Y-36121D02*
X61578Y-35821D01*
X61650Y-35821D01*
X61693Y-35836D01*
X61721Y-35864D01*
X61736Y-35893D01*
X61750Y-35950D01*
X61750Y-35993D01*
X61736Y-36050D01*
X61721Y-36079D01*
X61693Y-36107D01*
X61650Y-36121D01*
X61578Y-36121D01*
X62036Y-36121D02*
X61864Y-36121D01*
X61950Y-36121D02*
X61950Y-35821D01*
X61921Y-35864D01*
X61893Y-35893D01*
X61864Y-35907D01*
G54D14*
X52954Y-35996D02*
X52982Y-36025D01*
X53011Y-36111D01*
X53011Y-36168D01*
X52982Y-36253D01*
X52925Y-36311D01*
X52868Y-36339D01*
X52754Y-36368D01*
X52668Y-36368D01*
X52554Y-36339D01*
X52497Y-36311D01*
X52439Y-36253D01*
X52411Y-36168D01*
X52411Y-36111D01*
X52439Y-36025D01*
X52468Y-35996D01*
X53011Y-35425D02*
X53011Y-35768D01*
X53011Y-35596D02*
X52411Y-35596D01*
X52497Y-35653D01*
X52554Y-35711D01*
X52582Y-35768D01*
X52411Y-34911D02*
X52411Y-35025D01*
X52439Y-35082D01*
X52468Y-35111D01*
X52554Y-35168D01*
X52668Y-35197D01*
X52897Y-35197D01*
X52954Y-35168D01*
X52982Y-35140D01*
X53011Y-35082D01*
X53011Y-34968D01*
X52982Y-34911D01*
X52954Y-34882D01*
X52897Y-34854D01*
X52754Y-34854D01*
X52697Y-34882D01*
X52668Y-34911D01*
X52639Y-34968D01*
X52639Y-35082D01*
X52668Y-35140D01*
X52697Y-35168D01*
X52754Y-35197D01*
X49415Y-43936D02*
X49386Y-43964D01*
X49300Y-43993D01*
X49243Y-43993D01*
X49158Y-43964D01*
X49100Y-43907D01*
X49072Y-43850D01*
X49043Y-43736D01*
X49043Y-43650D01*
X49072Y-43536D01*
X49100Y-43479D01*
X49158Y-43421D01*
X49243Y-43393D01*
X49300Y-43393D01*
X49386Y-43421D01*
X49415Y-43450D01*
X49986Y-43993D02*
X49643Y-43993D01*
X49815Y-43993D02*
X49815Y-43393D01*
X49758Y-43479D01*
X49700Y-43536D01*
X49643Y-43564D01*
X50186Y-43393D02*
X50586Y-43393D01*
X50329Y-43993D01*
X38586Y-44585D02*
X38614Y-44614D01*
X38643Y-44700D01*
X38643Y-44757D01*
X38614Y-44842D01*
X38557Y-44900D01*
X38500Y-44928D01*
X38386Y-44957D01*
X38300Y-44957D01*
X38186Y-44928D01*
X38129Y-44900D01*
X38071Y-44842D01*
X38043Y-44757D01*
X38043Y-44700D01*
X38071Y-44614D01*
X38100Y-44585D01*
X38643Y-44014D02*
X38643Y-44357D01*
X38643Y-44185D02*
X38043Y-44185D01*
X38129Y-44242D01*
X38186Y-44300D01*
X38214Y-44357D01*
X38300Y-43671D02*
X38271Y-43729D01*
X38243Y-43757D01*
X38186Y-43786D01*
X38157Y-43786D01*
X38100Y-43757D01*
X38071Y-43729D01*
X38043Y-43671D01*
X38043Y-43557D01*
X38071Y-43500D01*
X38100Y-43471D01*
X38157Y-43443D01*
X38186Y-43443D01*
X38243Y-43471D01*
X38271Y-43500D01*
X38300Y-43557D01*
X38300Y-43671D01*
X38329Y-43729D01*
X38357Y-43757D01*
X38414Y-43786D01*
X38529Y-43786D01*
X38586Y-43757D01*
X38614Y-43729D01*
X38643Y-43671D01*
X38643Y-43557D01*
X38614Y-43500D01*
X38586Y-43471D01*
X38529Y-43443D01*
X38414Y-43443D01*
X38357Y-43471D01*
X38329Y-43500D01*
X38300Y-43557D01*
G54D15*
X37857Y-32443D02*
X37843Y-32457D01*
X37800Y-32471D01*
X37771Y-32471D01*
X37728Y-32457D01*
X37700Y-32429D01*
X37685Y-32400D01*
X37671Y-32343D01*
X37671Y-32300D01*
X37685Y-32243D01*
X37700Y-32214D01*
X37728Y-32186D01*
X37771Y-32171D01*
X37800Y-32171D01*
X37843Y-32186D01*
X37857Y-32200D01*
X38143Y-32471D02*
X37971Y-32471D01*
X38057Y-32471D02*
X38057Y-32171D01*
X38028Y-32214D01*
X38000Y-32243D01*
X37971Y-32257D01*
X38286Y-32471D02*
X38343Y-32471D01*
X38371Y-32457D01*
X38386Y-32443D01*
X38414Y-32400D01*
X38429Y-32343D01*
X38429Y-32229D01*
X38414Y-32200D01*
X38400Y-32186D01*
X38371Y-32171D01*
X38314Y-32171D01*
X38286Y-32186D01*
X38271Y-32200D01*
X38257Y-32229D01*
X38257Y-32300D01*
X38271Y-32329D01*
X38286Y-32343D01*
X38314Y-32357D01*
X38371Y-32357D01*
X38400Y-32343D01*
X38414Y-32329D01*
X38429Y-32300D01*
X41007Y-32443D02*
X40993Y-32457D01*
X40950Y-32471D01*
X40921Y-32471D01*
X40878Y-32457D01*
X40850Y-32429D01*
X40835Y-32400D01*
X40821Y-32343D01*
X40821Y-32300D01*
X40835Y-32243D01*
X40850Y-32214D01*
X40878Y-32186D01*
X40921Y-32171D01*
X40950Y-32171D01*
X40993Y-32186D01*
X41007Y-32200D01*
X41121Y-32200D02*
X41135Y-32186D01*
X41164Y-32171D01*
X41235Y-32171D01*
X41264Y-32186D01*
X41278Y-32200D01*
X41293Y-32229D01*
X41293Y-32257D01*
X41278Y-32300D01*
X41107Y-32471D01*
X41293Y-32471D01*
X41479Y-32171D02*
X41507Y-32171D01*
X41536Y-32186D01*
X41550Y-32200D01*
X41564Y-32229D01*
X41579Y-32286D01*
X41579Y-32357D01*
X41564Y-32414D01*
X41550Y-32443D01*
X41536Y-32457D01*
X41507Y-32471D01*
X41479Y-32471D01*
X41450Y-32457D01*
X41436Y-32443D01*
X41421Y-32414D01*
X41407Y-32357D01*
X41407Y-32286D01*
X41421Y-32229D01*
X41436Y-32200D01*
X41450Y-32186D01*
X41479Y-32171D01*
X43907Y-32093D02*
X43893Y-32107D01*
X43850Y-32121D01*
X43821Y-32121D01*
X43778Y-32107D01*
X43750Y-32079D01*
X43735Y-32050D01*
X43721Y-31993D01*
X43721Y-31950D01*
X43735Y-31893D01*
X43750Y-31864D01*
X43778Y-31836D01*
X43821Y-31821D01*
X43850Y-31821D01*
X43893Y-31836D01*
X43907Y-31850D01*
X44021Y-31850D02*
X44035Y-31836D01*
X44064Y-31821D01*
X44135Y-31821D01*
X44164Y-31836D01*
X44178Y-31850D01*
X44193Y-31879D01*
X44193Y-31907D01*
X44178Y-31950D01*
X44007Y-32121D01*
X44193Y-32121D01*
X44479Y-32121D02*
X44307Y-32121D01*
X44393Y-32121D02*
X44393Y-31821D01*
X44364Y-31864D01*
X44336Y-31893D01*
X44307Y-31907D01*
X56207Y-34993D02*
X56193Y-35007D01*
X56150Y-35021D01*
X56121Y-35021D01*
X56078Y-35007D01*
X56050Y-34979D01*
X56035Y-34950D01*
X56021Y-34893D01*
X56021Y-34850D01*
X56035Y-34793D01*
X56050Y-34764D01*
X56078Y-34736D01*
X56121Y-34721D01*
X56150Y-34721D01*
X56193Y-34736D01*
X56207Y-34750D01*
X56321Y-34750D02*
X56335Y-34736D01*
X56364Y-34721D01*
X56435Y-34721D01*
X56464Y-34736D01*
X56478Y-34750D01*
X56493Y-34779D01*
X56493Y-34807D01*
X56478Y-34850D01*
X56307Y-35021D01*
X56493Y-35021D01*
X56750Y-34821D02*
X56750Y-35021D01*
X56679Y-34707D02*
X56607Y-34921D01*
X56793Y-34921D01*
X60843Y-31293D02*
X60857Y-31307D01*
X60871Y-31350D01*
X60871Y-31379D01*
X60857Y-31422D01*
X60829Y-31450D01*
X60800Y-31465D01*
X60743Y-31479D01*
X60700Y-31479D01*
X60643Y-31465D01*
X60614Y-31450D01*
X60586Y-31422D01*
X60571Y-31379D01*
X60571Y-31350D01*
X60586Y-31307D01*
X60600Y-31293D01*
X60600Y-31179D02*
X60586Y-31165D01*
X60571Y-31136D01*
X60571Y-31065D01*
X60586Y-31036D01*
X60600Y-31022D01*
X60629Y-31007D01*
X60657Y-31007D01*
X60700Y-31022D01*
X60871Y-31193D01*
X60871Y-31007D01*
X60571Y-30907D02*
X60571Y-30721D01*
X60686Y-30821D01*
X60686Y-30779D01*
X60700Y-30750D01*
X60714Y-30736D01*
X60743Y-30721D01*
X60814Y-30721D01*
X60843Y-30736D01*
X60857Y-30750D01*
X60871Y-30779D01*
X60871Y-30864D01*
X60857Y-30893D01*
X60843Y-30907D01*
X57393Y-31243D02*
X57407Y-31257D01*
X57421Y-31300D01*
X57421Y-31329D01*
X57407Y-31372D01*
X57379Y-31400D01*
X57350Y-31415D01*
X57293Y-31429D01*
X57250Y-31429D01*
X57193Y-31415D01*
X57164Y-31400D01*
X57136Y-31372D01*
X57121Y-31329D01*
X57121Y-31300D01*
X57136Y-31257D01*
X57150Y-31243D01*
X57150Y-31129D02*
X57136Y-31115D01*
X57121Y-31086D01*
X57121Y-31015D01*
X57136Y-30986D01*
X57150Y-30972D01*
X57179Y-30957D01*
X57207Y-30957D01*
X57250Y-30972D01*
X57421Y-31143D01*
X57421Y-30957D01*
X57150Y-30843D02*
X57136Y-30829D01*
X57121Y-30800D01*
X57121Y-30729D01*
X57136Y-30700D01*
X57150Y-30686D01*
X57179Y-30671D01*
X57207Y-30671D01*
X57250Y-30686D01*
X57421Y-30857D01*
X57421Y-30671D01*
%LPC*%
G54D16*
X63337Y-34862D03*
X63337Y-34606D03*
X63337Y-34350D03*
X63337Y-34094D03*
X63337Y-33838D03*
G54D17*
X63396Y-35570D03*
X63396Y-33130D03*
G54D18*
X64400Y-34822D03*
X64400Y-33878D03*
X64400Y-32775D03*
X64400Y-35925D03*
G54D19*
X44450Y-38950D03*
G54D20*
X43450Y-37950D03*
X42450Y-38950D03*
G54D19*
X37350Y-41800D03*
G54D20*
X38350Y-42800D03*
X39350Y-41800D03*
G54D19*
X39350Y-38950D03*
G54D20*
X38350Y-37950D03*
X37350Y-38950D03*
G54D19*
X42450Y-41800D03*
G54D20*
X43450Y-42800D03*
X44450Y-41800D03*
G54D19*
X49550Y-38950D03*
G54D20*
X48550Y-37950D03*
X47550Y-38950D03*
G54D19*
X47550Y-41800D03*
G54D20*
X48550Y-42800D03*
X49550Y-41800D03*
G54D21*
X54900Y-39400D03*
G54D22*
X52300Y-39400D03*
X52300Y-40300D03*
X52300Y-38500D03*
G54D23*
X44150Y-34050D03*
G54D24*
X44150Y-35050D03*
G54D23*
X41150Y-34050D03*
G54D24*
X41150Y-35050D03*
G54D23*
X38050Y-34050D03*
G54D24*
X38050Y-35050D03*
G54D25*
X37300Y-35700D03*
X36800Y-35700D03*
X36300Y-35700D03*
X35800Y-35700D03*
X35800Y-33200D03*
X36300Y-33200D03*
X36800Y-33200D03*
X37300Y-33200D03*
X40400Y-35700D03*
X39900Y-35700D03*
X39400Y-35700D03*
X38900Y-35700D03*
X38900Y-33200D03*
X39400Y-33200D03*
X39900Y-33200D03*
X40400Y-33200D03*
X43400Y-35700D03*
X42900Y-35700D03*
X42400Y-35700D03*
X41900Y-35700D03*
X41900Y-33200D03*
X42400Y-33200D03*
X42900Y-33200D03*
X43400Y-33200D03*
G54D26*
X50050Y-35650D03*
X50050Y-35150D03*
X50050Y-34650D03*
X50050Y-34150D03*
X50050Y-33650D03*
X50050Y-33150D03*
X50050Y-32650D03*
X47550Y-32650D03*
X47550Y-33150D03*
X47550Y-34150D03*
X47550Y-34650D03*
X47550Y-35150D03*
X47550Y-35650D03*
X47550Y-33650D03*
G54D27*
X51450Y-34550D03*
X51450Y-33850D03*
X50750Y-33850D03*
X50750Y-34550D03*
G54D28*
X55800Y-42350D03*
X56500Y-42350D03*
G54D27*
X40900Y-38250D03*
X40900Y-38950D03*
G54D28*
X55800Y-43750D03*
X56500Y-43750D03*
G54D27*
X62450Y-34300D03*
X62450Y-35000D03*
G54D28*
X55800Y-43050D03*
X56500Y-43050D03*
X57100Y-43050D03*
X57800Y-43050D03*
X57100Y-43750D03*
X57800Y-43750D03*
X57100Y-42350D03*
X57800Y-42350D03*
X52800Y-47500D03*
X52100Y-47500D03*
X50800Y-47500D03*
X51500Y-47500D03*
G54D27*
X51450Y-35950D03*
X51450Y-35250D03*
X46750Y-34750D03*
X46750Y-34050D03*
G54D28*
X46600Y-36300D03*
X47300Y-36300D03*
X52350Y-41300D03*
X53050Y-41300D03*
G54D27*
X35800Y-41100D03*
X35800Y-41800D03*
X46000Y-38250D03*
X46000Y-38950D03*
X40900Y-41100D03*
X40900Y-41800D03*
X49550Y-37300D03*
X49550Y-38000D03*
X46000Y-41100D03*
X46000Y-41800D03*
X46750Y-32800D03*
X46750Y-33500D03*
X46000Y-33500D03*
X46000Y-32800D03*
X50950Y-38000D03*
X50950Y-37300D03*
X50250Y-38000D03*
X50250Y-37300D03*
G54D28*
X53000Y-37500D03*
X52300Y-37500D03*
G54D27*
X58600Y-38150D03*
X58600Y-37450D03*
G54D28*
X62950Y-38300D03*
X63650Y-38300D03*
X62950Y-39000D03*
X63650Y-39000D03*
X62950Y-37600D03*
X63650Y-37600D03*
G54D27*
X52150Y-34550D03*
X52150Y-33850D03*
X50750Y-35250D03*
X50750Y-35950D03*
G54D28*
X37000Y-36400D03*
X36300Y-36400D03*
X40100Y-36400D03*
X39400Y-36400D03*
X43100Y-36400D03*
X42400Y-36400D03*
G54D27*
X45250Y-33500D03*
X45250Y-32800D03*
X57000Y-38150D03*
X57000Y-37450D03*
X62750Y-43500D03*
X62750Y-42800D03*
X60650Y-42100D03*
X60650Y-41400D03*
G54D28*
X52800Y-46450D03*
X52100Y-46450D03*
G54D27*
X64150Y-42800D03*
X64150Y-43500D03*
X61350Y-43500D03*
X61350Y-42800D03*
X63450Y-42800D03*
X63450Y-43500D03*
X61350Y-41400D03*
X61350Y-42100D03*
X59950Y-42100D03*
X59950Y-41400D03*
G54D28*
X50800Y-45750D03*
X51500Y-45750D03*
X52800Y-45750D03*
X52100Y-45750D03*
G54D27*
X62050Y-43500D03*
X62050Y-42800D03*
G54D28*
X50800Y-45050D03*
X51500Y-45050D03*
X52800Y-45050D03*
X52100Y-45050D03*
X50800Y-46450D03*
X51500Y-46450D03*
G54D29*
X57717Y-34573D03*
X57914Y-34573D03*
X58111Y-34573D03*
X58308Y-34573D03*
X58505Y-34573D03*
X58702Y-34573D03*
X58898Y-34573D03*
X59095Y-34573D03*
X59292Y-34573D03*
X59489Y-34573D03*
X59686Y-34573D03*
X59883Y-34573D03*
G54D30*
X60473Y-33983D03*
X60473Y-33786D03*
X60473Y-33589D03*
X60473Y-33392D03*
X60473Y-33195D03*
X60473Y-32998D03*
X60473Y-32802D03*
X60473Y-32605D03*
X60473Y-32408D03*
X60473Y-32211D03*
X60473Y-32014D03*
X60473Y-31817D03*
G54D29*
X59883Y-31227D03*
X59686Y-31227D03*
X59489Y-31227D03*
X59292Y-31227D03*
X59095Y-31227D03*
X58898Y-31227D03*
X58702Y-31227D03*
X58505Y-31227D03*
X58308Y-31227D03*
X58111Y-31227D03*
X57914Y-31227D03*
X57717Y-31227D03*
G54D30*
X57127Y-31817D03*
X57127Y-32014D03*
X57127Y-32211D03*
X57127Y-32408D03*
X57127Y-32605D03*
X57127Y-32802D03*
X57127Y-32998D03*
X57127Y-33195D03*
X57127Y-33392D03*
X57127Y-33589D03*
X57127Y-33786D03*
X57127Y-33983D03*
G54D31*
X58587Y-36400D03*
X56973Y-36400D03*
G54D32*
X58124Y-46402D03*
X58714Y-46402D03*
X59305Y-46402D03*
X59895Y-46402D03*
X60486Y-46402D03*
X61076Y-46402D03*
G54D33*
X39463Y-46800D03*
X41431Y-46800D03*
X43400Y-46800D03*
X45369Y-46800D03*
X47337Y-46800D03*
G54D32*
X54019Y-46402D03*
X54609Y-46402D03*
X55200Y-46402D03*
X55791Y-46402D03*
X56381Y-46402D03*
G54D34*
X53650Y-31100D03*
X55150Y-31100D03*
X53650Y-31600D03*
X55150Y-31600D03*
X53650Y-32100D03*
X55150Y-32100D03*
X53650Y-32600D03*
X55150Y-32600D03*
X53650Y-33100D03*
X55150Y-33100D03*
G54D35*
X36250Y-30250D03*
X36250Y-47750D03*
X63750Y-47750D03*
X63750Y-30250D03*
G54D36*
X42000Y-43700D03*
X40000Y-43700D03*
G54D23*
X62450Y-35550D03*
G54D24*
X62450Y-36550D03*
G54D37*
X54500Y-36556D03*
X54500Y-34744D03*
G54D38*
X51144Y-43050D03*
X52956Y-43050D03*
G54D37*
X36550Y-43294D03*
X36550Y-45106D03*
G54D27*
X38050Y-33500D03*
X38050Y-32800D03*
X41150Y-33500D03*
X41150Y-32800D03*
X44150Y-33500D03*
X44150Y-32800D03*
X56350Y-34350D03*
X56350Y-33650D03*
X61350Y-30750D03*
X61350Y-31450D03*
X56700Y-31400D03*
X56700Y-30700D03*
M02*
